<?xml version="1.0" encoding="utf-8"?>
<!-- Generator: Adobe Illustrator 25.0.1, SVG Export Plug-In . SVG Version: 6.00 Build 0)  -->
<svg version="1.0" id="katman_1" xmlns="http://www.w3.org/2000/svg" xmlns:xlink="http://www.w3.org/1999/xlink" x="0px" y="0px"
	 viewBox="0 0 800 600" style="enable-background:new 0 0 800 600;" xml:space="preserve">
<style type="text/css">
	.st0{fill:#1D1D1B;}
</style>
<g>
	<g>
		<path class="st0" d="M264,213.7c-23-23.1-53.6-35.7-86.2-35.7c-67.2,0-121.9,54.7-121.9,122s54.7,122,121.9,122
			c32.6,0,63.2-12.7,86.2-35.8c23-23.1,35.7-53.7,35.7-86.3S287,236.8,264,213.7z M177.8,413.6c-62.6,0-113.5-51-113.5-113.6
			s50.9-113.6,113.5-113.6s113.5,51,113.5,113.6S240.4,413.6,177.8,413.6z"/>
		<path class="st0" d="M217.8,302.9c-7.8-7-18-11.6-27.9-16.2l-0.1,0c-17.5-8-32.6-14.9-31.5-31.2c0.5-6.2,5-10,8.7-12
			c4.2-2.3,9.7-3.7,14.8-3.7c0.6,0,1.2,0,1.8,0c14.9,1,26.7,7.3,38.2,20.4l0.7,0.8l0.8-0.7l4.5-3.9l0.8-0.7l-0.7-0.8
			c-12.8-14.7-26.7-22.1-43.7-23.2c-0.7-0.1-1.5-0.1-2.4-0.1c-0.5,0-1.1,0-1.7,0h-0.7c-11.2,0-23.4,3.7-32.7,9.8
			c-11.1,7.3-17.3,17.4-17.5,28.5c-0.4,26.8,21.4,35.8,40.8,43.8l0,0l0.2,0.1c17.1,7.1,31.8,13.2,31.5,29.5
			c-0.1,10.8-15.6,16.7-26.2,16.7h-0.4h-1v0c-15.8-0.5-29.9-7.3-41.9-20.2l-0.7-0.8l-0.8,0.7l-4.4,4.1l-0.8,0.7l0.7,0.8
			c13.7,14.7,30.5,22.6,48.8,22.8h0.8c11.8,0,24.6-3.2,34.3-8.5c12.1-6.6,19.2-16.3,19.9-27.1C230.8,320.7,226.8,310.9,217.8,302.9z
			 M161.2,279.6c7,6,16.4,10.2,25.5,14.3l0.2,0.1c9.6,4.4,18.8,8.6,25.4,14.5c7.3,6.4,10.4,13.9,9.8,23.5
			c-0.6,9.5-7.7,15.8-14.1,19.7c1.2-2.5,1.9-5.3,2-8.2c0.1-9.9-3.6-17.7-11.6-24.1c-7-5.6-16.2-9.4-25.1-13.1
			c-18.6-7.6-36.1-14.9-35.8-36.2c0.1-8.2,5-16,13.9-21.8c0.3-0.2,0.6-0.4,0.9-0.6c-1,2.3-1.6,4.7-1.8,7.2
			C149.7,264.7,153.2,272.8,161.2,279.6z"/>
	</g>
	<g>
		<g>
			<path class="st0" d="M376.1,286.6c-4.4,0-8.8-0.7-13.1-2.1c-4.2-1.4-7.9-3.5-10.9-6.1l5.1-8.5c3.2,2.3,6.4,4,9.5,5.2
				c3.1,1.1,6.1,1.8,9.2,1.8c2.7,0,4.8-0.5,6.4-1.5c1.6-1,2.3-2.4,2.3-4.4c0-1.9-0.9-3.3-2.7-4.1s-4.8-1.9-8.9-3.1
				c-3.5-1-6.4-1.9-8.8-2.7c-2.4-0.9-4.4-1.9-5.9-3c-1.5-1.1-2.6-2.4-3.2-3.8c-0.7-1.5-1-3.2-1-5.2c0-2.7,0.5-5.1,1.6-7.3
				c1-2.1,2.5-4,4.4-5.5c1.9-1.5,4.1-2.7,6.6-3.5s5.3-1.2,8.3-1.2c4,0,7.7,0.5,11.2,1.7c3.5,1.1,6.7,3,9.5,5.6L390,247
				c-2.7-2-5.3-3.5-7.8-4.4c-2.6-1-5.1-1.4-7.5-1.4c-2.3,0-4.2,0.5-5.8,1.4c-1.6,1-2.3,2.5-2.3,4.6c0,1,0.2,1.7,0.5,2.3
				c0.4,0.6,1,1.1,1.8,1.6c0.8,0.5,1.9,0.9,3.2,1.3c1.3,0.4,3,0.9,4.9,1.3c3.6,1,6.8,1.9,9.4,2.9s4.7,2,6.4,3.2
				c1.6,1.2,2.9,2.6,3.6,4.2c0.8,1.6,1.1,3.5,1.1,5.7c0,5.2-2,9.3-5.8,12.3C387.9,285.2,382.7,286.6,376.1,286.6z"/>
			<path class="st0" d="M463,262.7h-42.4c0.7,4,2.7,7.1,5.8,9.5c3.2,2.3,7.1,3.5,11.7,3.5c6,0,10.8-2,14.6-5.9l6.8,7.8
				c-2.4,2.9-5.5,5.1-9.2,6.6c-3.7,1.5-7.9,2.2-12.5,2.2c-6,0-11.2-1.1-15.7-3.5c-4.5-2.4-8-5.7-10.5-9.9c-2.5-4.2-3.7-9-3.7-14.3
				c0-5.3,1.2-10,3.6-14.2c2.4-4.2,5.7-7.5,10-9.9c4.2-2.4,9.1-3.5,14.3-3.5c5.3,0,10,1.1,14.1,3.5c4.1,2.3,7.3,5.6,9.7,9.8
				c2.3,4.2,3.5,9.1,3.5,14.6C463.2,259.8,463.1,261,463,262.7z M425.6,244.7c-2.8,2.4-4.5,5.6-5.1,9.5h30.6c-0.5-3.9-2.2-7.1-5-9.5
				c-2.8-2.4-6.2-3.7-10.3-3.7C431.8,241.1,428.4,242.3,425.6,244.7z"/>
			<path class="st0" d="M489,282.8c-4.4-2.4-7.9-5.7-10.4-9.9c-2.5-4.2-3.8-9-3.8-14.3c0-5.3,1.3-10.1,3.8-14.3s6-7.5,10.4-9.8
				c4.4-2.4,9.5-3.5,15.1-3.5c5.3,0,10,1.1,14,3.2c4,2.2,7.1,5.3,9.1,9.3l-9.7,5.7c-1.6-2.5-3.5-4.4-5.8-5.6
				c-2.3-1.3-4.9-1.9-7.7-1.9c-4.7,0-8.6,1.5-11.7,4.6c-3.1,3.1-4.7,7.2-4.7,12.3c0,5.1,1.5,9.2,4.6,12.3c3.1,3.1,7,4.6,11.8,4.6
				c2.7,0,5.3-0.6,7.7-1.9c2.3-1.3,4.2-3.1,5.8-5.6l9.7,5.7c-2.1,4.1-5.2,7.2-9.2,9.4c-4,2.2-8.6,3.3-13.9,3.3
				C498.4,286.3,493.5,285.2,489,282.8z"/>
			<path class="st0" d="M573.3,231V243c-1.1-0.2-2.1-0.3-2.9-0.3c-4.9,0-8.8,1.5-11.5,4.3c-2.8,2.9-4.1,7-4.1,12.4v26.2H542v-54.1
				h12v7.9C557.7,233.8,564.1,231,573.3,231z"/>
			<path class="st0" d="M637.2,262.7h-42.4c0.7,4,2.7,7.1,5.8,9.5c3.2,2.3,7.1,3.5,11.7,3.5c6,0,10.8-2,14.6-5.9l6.8,7.8
				c-2.4,2.9-5.5,5.1-9.2,6.6c-3.7,1.5-7.9,2.2-12.5,2.2c-6,0-11.2-1.1-15.7-3.5c-4.5-2.4-8-5.7-10.5-9.9c-2.5-4.2-3.7-9-3.7-14.3
				c0-5.3,1.2-10,3.6-14.2c2.4-4.2,5.7-7.5,10-9.9c4.2-2.4,9.1-3.5,14.3-3.5c5.3,0,10,1.1,14.1,3.5c4.1,2.3,7.3,5.6,9.7,9.8
				c2.3,4.2,3.5,9.1,3.5,14.6C637.5,259.8,637.4,261,637.2,262.7z M599.9,244.7c-2.8,2.4-4.5,5.6-5.1,9.5h30.6
				c-0.5-3.9-2.2-7.1-5-9.5c-2.8-2.4-6.2-3.7-10.3-3.7C606.1,241.1,602.7,242.3,599.9,244.7z"/>
			<path class="st0" d="M686,282.7c-1.5,1.2-3.3,2.1-5.4,2.7c-2.1,0.6-4.4,0.9-6.8,0.9c-6,0-10.5-1.6-13.7-4.7
				c-3.2-3.1-4.9-7.6-4.9-13.6v-26h-8.9v-10h8.9v-12.3h12.6V232h14.5v10.1h-14.5v25.7c0,2.6,0.7,4.6,2,6c1.3,1.4,3.2,2.1,5.6,2.1
				c2.9,0,5.2-0.7,7.1-2.2L686,282.7z"/>
		</g>
		<g>
			<path class="st0" d="M396.7,320.6c4,3.9,5.9,9.5,5.9,17v30.9h-7.2v-30.2c0-5.5-1.4-9.7-4.1-12.7c-2.8-2.9-6.7-4.4-11.9-4.4
				c-5.7,0-10.3,1.7-13.6,5.1c-3.3,3.4-5,8.1-5,14.1v27.9h-7.2v-53.2h6.9v9.8c2-3.2,4.7-5.8,8.2-7.5c3.5-1.8,7.5-2.7,12.1-2.7
				C387.4,314.8,392.7,316.7,396.7,320.6z"/>
			<path class="st0" d="M467.9,344h-44.5c0.4,5.5,2.6,10,6.4,13.4c3.8,3.4,8.7,5.1,14.6,5.1c3.3,0,6.3-0.6,9.1-1.8
				c2.7-1.1,5.2-2.9,7.2-5.2l4.1,4.7c-2.4,2.9-5.3,5-8.9,6.5c-3.5,1.5-7.4,2.2-11.7,2.2c-5.5,0-10.3-1.1-14.5-3.5
				c-4.2-2.3-7.5-5.5-9.9-9.7c-2.4-4.1-3.5-8.8-3.5-14c0-5.2,1.1-9.9,3.4-14c2.2-4.1,5.3-7.3,9.3-9.6c4-2.3,8.4-3.5,13.3-3.5
				c4.9,0,9.4,1.1,13.3,3.5c3.9,2.3,7,5.5,9.2,9.5c2.2,4.1,3.3,8.8,3.3,14L467.9,344z M429.3,325.9c-3.5,3.3-5.5,7.5-5.9,12.8h37.8
				c-0.5-5.3-2.4-9.5-5.9-12.8s-7.8-4.9-13-4.9C437,320.9,432.7,322.6,429.3,325.9z"/>
			<path class="st0" d="M508.3,365.2c-1.3,1.2-3.1,2.1-5,2.8c-2,0.7-4.1,1-6.2,1c-5,0-8.8-1.3-11.5-4.1c-2.7-2.7-4.1-6.5-4.1-11.4
				v-32.2H472v-6.1h9.5v-11.6h7.2v11.6h16.2v6.1h-16.2v31.8c0,3.2,0.8,5.6,2.4,7.2c1.6,1.6,3.9,2.5,6.8,2.5c1.5,0,2.9-0.2,4.3-0.7
				c1.4-0.5,2.6-1.1,3.6-2L508.3,365.2z"/>
			<path class="st0" d="M583.1,315.6h8.6l-22.4,52.9h-7.3l-10.6-25.8l-10.5,25.8h-7.3l-22.5-52.9h8.5l18.2,44l8.9-22l-9.1-22h7.3
				l6.5,16.9l6.5-16.9h7.3l-9.1,22l8.9,22L583.1,315.6z"/>
			<path class="st0" d="M620.5,369.2c-3.8,0-7.3-0.7-10.5-2.2s-5.9-3.4-8.3-5.9c-2.3-2.5-4.1-5.4-5.4-8.7c-1.3-3.3-2-6.8-2-10.4
				c0-3.7,0.7-7.2,2-10.5c1.3-3.3,3.2-6.2,5.5-8.7c2.3-2.5,5.1-4.5,8.3-6c3.2-1.5,6.6-2.2,10.4-2.2c3.8,0,7.3,0.7,10.4,2.2
				c3.2,1.5,6,3.5,8.3,6c2.3,2.5,4.1,5.4,5.5,8.7c1.3,3.3,2,6.8,2,10.5c0,3.7-0.7,7.1-2,10.4c-1.3,3.3-3.1,6.2-5.4,8.7
				c-2.3,2.5-5.1,4.5-8.3,5.9C627.8,368.4,624.3,369.2,620.5,369.2z M601.3,342c0,3,0.5,5.7,1.5,8.3s2.4,4.7,4.1,6.7
				c1.7,2,3.8,3.4,6.1,4.5c2.3,1.1,4.8,1.6,7.4,1.6c2.6,0,5.1-0.5,7.4-1.6c2.3-1.1,4.4-2.6,6.1-4.6c1.8-2,3.2-4.1,4.1-6.8
				c1-2.6,1.5-5.3,1.5-8.3c0-2.9-0.5-5.7-1.5-8.3c-1-2.6-2.4-4.9-4.1-6.8c-1.8-2-3.8-3.5-6.1-4.6c-2.3-1.1-4.8-1.6-7.4-1.6
				c-2.6,0-5.1,0.5-7.3,1.6c-2.3,1.1-4.3,2.7-6.1,4.6c-1.8,2-3.2,4.3-4.1,6.8C601.9,336.3,601.3,339.1,601.3,342z"/>
			<path class="st0" d="M684.5,321.8c-4.7,0.1-8.7,1.4-12.2,3.8c-3.5,2.4-5.9,5.8-7.3,10v32.8h-6.9v-52.7h6.5v12.7
				c2-4.1,4.6-7.2,7.9-9.5c3.3-2.3,6.9-3.5,10.6-3.5c0.5,0,1,0.1,1.3,0.1L684.5,321.8L684.5,321.8L684.5,321.8z"/>
			<path class="st0" d="M736.1,368.5l-19.4-27L705.3,352v16.5h-6.9v-73.9h6.9v50.2l29.6-28.9h7.8l-21.5,21.5l22.4,31.1L736.1,368.5
				L736.1,368.5z"/>
		</g>
	</g>
</g>
</svg>
