<?xml version="1.0" encoding="UTF-8"?>
<svg id="Layer_1" data-name="Layer 1" xmlns="http://www.w3.org/2000/svg" viewBox="0 0 2000 2000">
  <defs>
    <style>
      .cls-1 {
        fill: none;
      }

      .cls-1, .cls-2, .cls-3, .cls-4 {
        stroke-width: 0px;
      }

      .cls-3 {
        fill: #fff;
      }

      .cls-4 {
        fill: #e8b321;
      }
    </style>
  </defs>
  <path class="cls-3" d="M1594.14,1294.6l-4.64,5.57c-4.87,6.01-12.23,9.44-19.97,9.29h-939.75l-24.61,36.22h961.11c10,.04,19.45-4.6,25.54-12.54,6.39-7.78,8.47-18.22,5.57-27.86l-3.25-10.68Z"/>
  <path class="cls-3" d="M1447.88,201.17c-7.57-27.56-32.7-46.61-61.29-46.43H408.77c-15.86-.23-30.74,7.64-39.47,20.89l-63.61,97.04c-7.73,11.26-10.11,25.36-6.5,38.54l267.44,998.25,50.14-74.75c18-28.6,49.31-46.1,83.11-46.43h970.39c10,.04,19.45-4.6,25.54-12.54,6.32-7.99,8.39-18.54,5.57-28.32l-253.51-946.25Z"/>
  <line class="cls-1" x1="415.73" y1="300.99" x2="409.7" y2="280.1"/>
  <path class="cls-2" d="M415.73,327.46c-11.88-.15-22.26-8.08-25.54-19.5l-5.57-19.97c-3.79-13.85,4.36-28.15,18.22-31.94.12-.03.24-.06.36-.09,13.51-4.03,27.74,3.65,31.77,17.16.09.31.18.63.26.94l5.57,21.36c3.56,13.95-4.7,28.19-18.57,32.04h-6.5Z"/>
  <line class="cls-1" x1="567.1" y1="866.05" x2="446.84" y2="418"/>
  <path class="cls-2" d="M567.1,891.59c-11.99.17-22.54-7.89-25.54-19.5l-119.79-444.8c-3.56-13.95,4.7-28.19,18.57-32.04,13.95-3.56,28.19,4.7,32.04,18.57l119.79,445.27c3.56,13.95-4.7,28.19-18.57,32.04-2.12.58-4.32.74-6.5.46Z"/>
  <line class="cls-1" x1="628.39" y1="1094.95" x2="620.49" y2="1065.7"/>
  <path class="cls-2" d="M628.39,1123.74c-11.88-.15-22.26-8.08-25.54-19.5l-7.43-29.25c-3.85-13.83,4.23-28.17,18.07-32.03.01,0,.03,0,.04-.01,13.95-3.56,28.19,4.7,32.04,18.57l7.89,29.25c3.56,13.95-4.7,28.19-18.57,32.04l-6.5.93Z"/>
  <path class="cls-2" d="M1752,1134.42l-253.05-946.25c-13.53-50.87-59.72-86.18-112.36-85.9H408.77c-33.77.42-65.05,17.89-83.11,46.43l-64.07,95.18c-15.51,23.9-20.23,53.23-13,80.79l271.15,1011.25c9.83,36.57,42.92,62.05,80.79,62.22h965.75c46.41.38,84.34-36.94,84.72-83.35.06-7.76-.95-15.49-3.01-22.98l-12.54-46.43,2.79-3.25h32.04c46.93-.29,84.73-38.56,84.44-85.49-.04-7.03-.96-14.03-2.73-20.84v-1.39ZM1591.81,1333.14c-6.09,7.94-15.53,12.57-25.54,12.54h-961.11l24.61-36.22h939.75c7.73.15,15.1-3.28,19.97-9.29l4.64-5.57,3.25,10.68c2.9,9.63.81,20.08-5.57,27.86ZM1695.82,1175.74c-6.09,7.94-15.53,12.57-25.54,12.54h-970.39c-33.8.33-65.11,17.83-83.11,46.43l-50.14,74.75L299.19,311.21c-3.61-13.18-1.23-27.27,6.5-38.54l63.61-97.04c8.72-13.25,23.61-21.13,39.47-20.89h977.82c28.58-.18,53.72,18.87,61.29,46.43l253.51,946.25c2.82,9.79.75,20.33-5.57,28.32Z"/>
  <path class="cls-4" d="M1168.83,1871.27l-190.83-81.72-146.72,81.72c-63.15-232.15-16.25-371.44-84.5-656.99h337.08c58.04,240.04,29.72,430.41,84.97,656.99Z"/>
  <path class="cls-2" d="M1168.83,1897.73c-3.67-.11-7.29-.89-10.68-2.32l-178.29-75.22-135.58,74.29c-7.34,3.51-15.87,3.51-23.22,0-7.41-3.03-12.93-9.41-14.86-17.18-25.76-101.91-39.62-206.45-41.32-311.55-2.49-116.51-17.11-232.43-43.64-345.91-1.82-7.75-.12-15.91,4.64-22.29,4.97-6.5,12.71-10.29,20.89-10.21h337.08c12.07.05,22.57,8.27,25.54,19.97,24.82,112.22,39.58,226.42,44.11,341.26,4.11,106.23,17.62,211.89,40.39,315.73,2.36,9.55-.88,19.61-8.36,26-4.44,4.49-10.41,7.15-16.72,7.43ZM779.28,1240.74c22.76,106.92,35.51,215.73,38.07,325.01,1.83,89.5,12.4,178.6,31.57,266.05l117-65c7.29-3.72,15.92-3.72,23.22,0l143.47,61.75c-16.42-90.51-26.66-182.04-30.64-273.94-4.37-105.03-17.26-209.53-38.54-312.48l-284.15-1.39Z"/>
  <path class="cls-4" d="M1498.95,715.15h-850.6c21.1,56.95,51.54,109.99,90.07,156.93h752.64c13.92-51.13,16.61-104.67,7.89-156.93Z"/>
  <path class="cls-4" d="M624.67,627.86h849.21c-22.61-59.54-54.93-114.92-95.65-163.9h-745.67c-14.82,53.36-17.51,109.36-7.89,163.9Z"/>
  <path class="cls-4" d="M1290.02,376.67c-96.29-81.6-217.43-128.09-343.58-131.86-107.23-4.62-209.62,44.91-272.55,131.86h616.13Z"/>
  <path class="cls-4" d="M824.32,959.84c97.35,85.67,221.41,134.91,351.01,139.29,110.78,5.24,216.3-47.53,278.58-139.29h-629.6Z"/>
</svg>