<svg width="83" height="74" viewBox="0 0 83 74" fill="none" xmlns="http://www.w3.org/2000/svg">
<path d="M13.6587 57.7736L13.7666 57.9669L13.9461 58.0967C14.6611 58.6136 15.8476 59.2748 17.1375 59.5933C18.4131 59.9083 20.0172 59.9352 21.2735 58.8285C22.202 58.0106 22.9317 57.2392 23.4714 56.5956C23.9831 57.4185 24.74 58.3115 25.7826 58.936C27.8809 60.1929 32.245 62.0891 37.9429 62.7664C39.777 62.9844 41.7847 63.4318 43.7866 63.878C44.7622 64.0954 45.7364 64.3125 46.6885 64.5026C48.1036 64.7852 49.4698 65.0059 50.6372 65.0372C51.7547 65.0671 52.9347 64.9351 53.76 64.2656C55.8637 62.5591 64.8414 55.5729 68.9429 52.4026C71.0004 50.8123 73.4872 48.8261 75.5937 47.0872C77.6652 45.3774 79.4573 43.8356 80.0496 43.1703C80.505 42.6587 80.7699 41.8322 80.9261 41.0197C81.0929 40.1523 81.1715 39.1027 81.1311 37.9822C81.0509 35.7575 80.4953 33.114 79.0761 30.9951L64.4043 9.08874C63.5543 7.81567 61.9578 5.94834 59.8761 4.38951C57.7991 2.83429 55.1458 1.51752 52.2048 1.51752C46.8345 1.51752 36.3909 3.02176 31.848 3.7694C30.7224 3.88594 28.9969 4.1653 27.4093 4.63725C26.609 4.87518 25.8113 5.17148 25.1336 5.53825C24.4774 5.89333 23.8176 6.37575 23.4424 7.04163C22.8399 8.11105 22.4336 9.04924 22.1822 9.74775C21.7948 9.66781 21.3585 9.60296 20.9021 9.57327C19.9902 9.51395 18.8839 9.58723 17.9187 10.0691C17.7951 10.1308 17.6668 10.1931 17.5354 10.2569C16.7761 10.6257 15.9107 11.046 15.2147 11.7069C14.3326 12.5447 13.7596 13.7021 13.5397 15.4586C13.2441 17.8199 13.367 21.1749 13.4915 23.0009C12.7785 23.5056 11.869 24.2208 11.0129 25.0378C9.96994 26.0329 8.88538 27.291 8.43304 28.5813C7.94293 29.9793 7.71364 31.1548 7.73245 32.3753C7.75102 33.5808 8.01145 34.7705 8.41532 36.1818C8.70262 37.1857 8.75415 37.9829 8.71604 38.5519C8.69693 38.8372 8.65548 39.0622 8.61164 39.2257C8.59695 39.2804 8.58236 39.3269 8.56886 39.3652C7.48723 40.2956 5.89881 42.5664 7.13804 45.4121C8.21994 47.8964 11.951 54.7133 13.6587 57.7736Z" fill="#FCFCFC" stroke="#6D6D6D" stroke-width="2"/>
<path d="M17.8372 65.9678C12.5152 66.3113 8.46885 61.322 9.83362 56.2228L65.2415 7.67738C67.9308 5.32119 72.021 5.59119 74.3772 8.28046C76.7333 10.9697 76.4633 15.0599 73.7741 17.4161L18.4005 65.9314L17.8372 65.9678Z" fill="#E8B221" stroke="#6D6D6D" stroke-width="2"/>
<path d="M36.5727 46.4986C39.8241 46.8142 46.0559 48.7338 48.7654 49.6542C50.4436 50.2008 48.8528 58.998 47.8477 63.3283C43.5212 62.4956 34.0817 60.6724 30.9352 60.0413C27.002 59.2524 21.7578 56.8857 23.4622 51.1005C25.1666 45.3153 32.5084 46.1042 36.5727 46.4986Z" fill="#FCFCFC"/>
<path d="M22.4713 10.9955C22.8955 8.99172 24.306 7.64755 24.9688 6.9884L35.0643 18.5099V37.0979C34.8434 39.5148 33.1555 44.4276 28.1713 44.744C23.1871 45.0604 22.2945 39.7784 22.4713 37.0979C22.2945 29.232 22.0471 12.9994 22.4713 10.9955Z" fill="#FCFCFC"/>
<path d="M49.4357 20.8846L43.5601 21.2924M33.7021 21.8772L35.0086 21.7997M35.0086 21.7997C34.8898 26.8139 34.6285 37.1512 34.5335 38.3864C34.4147 39.9304 33.3458 44.9188 29.5451 44.9188C28.7614 44.9188 28.0485 44.8128 27.4072 44.6236M35.0086 21.7997L43.5601 21.2924M22.9851 8.45605C22.8267 8.81237 22.7751 14.4659 22.7751 15.7011C22.7751 17.2451 22.7751 18.7891 22.7751 20.5707C22.7751 21.8034 22.832 29.5185 22.9851 34.942M22.9851 34.942C23.0532 37.3568 23.1405 39.3174 23.2502 40.0492C23.5331 41.9348 24.9385 43.8953 27.4072 44.6236M22.9851 34.942H27.4072V44.6236M43.5601 21.2924L45.8725 23.4976M13.9861 22.3523L17.0384 43.1372M17.605 48.0069L17.0384 43.1372M17.0384 43.1372H19.4496L19.3866 46.8955M9.354 38.9802L15.7047 50.1023M46.8857 41.9071L45.4604 48.7789M46.8857 49.0758L35.4837 46.7004C33.3458 46.3836 28.6187 46.0828 26.8134 47.413C26.3375 47.7637 25.9038 48.1196 25.5203 48.4819M25.5203 59C24.5701 58.4061 24.2004 56.0833 23.7253 54.0642C23.3504 52.4709 24.0849 49.8378 25.5203 48.4819M25.5203 48.4819L33.227 49.0758C33.227 50.1843 33.132 52.8765 32.7519 54.7768C32.3719 56.6772 31.7622 59.4089 31.5642 60.1215" stroke="#6D6D6D" stroke-width="2" stroke-linecap="round" stroke-linejoin="round"/>
</svg>
