<svg width="61" height="72" viewBox="0 0 61 72" fill="none" xmlns="http://www.w3.org/2000/svg">
<path d="M13.4765 49.6242L15.9253 45.9239C16.473 45.0996 17.3982 44.605 18.3925 44.605H57.513C59.0596 44.605 60.1873 43.1441 59.7869 41.6604L49.5683 3.71861C49.1448 2.14782 47.7133 1.05331 46.0746 1.05331H6.66411C5.66987 1.05331 4.74467 1.5479 4.19692 2.37222L1.61926 6.26028C1.15436 6.96554 1.01167 7.83566 1.23261 8.65082L12.1554 49.2075C12.427 50.2196 13.3476 50.9202 14.3971 50.9202H53.3243C54.8709 50.9202 55.9986 49.4594 55.5982 47.9756L54.6914 44.605" fill="#FCFCFC"/>
<path d="M6.9403 9.03091C6.4754 9.03091 6.04732 8.72407 5.92304 8.25238L5.6929 7.40517C5.541 6.84646 5.87701 6.26943 6.43857 6.11831C7.00013 5.96718 7.58011 6.30149 7.732 6.8602L7.96215 7.70742C8.11405 8.26613 7.77804 8.84315 7.21647 8.99428C7.11981 9.02176 7.02776 9.03091 6.9403 9.03091Z" fill="#6D6D6D"/>
<path d="M13.0393 31.6815C12.5744 31.6815 12.1463 31.3746 12.0221 30.903L7.18435 12.9419C7.03245 12.3832 7.36847 11.8061 7.93003 11.655C8.49159 11.5039 9.07156 11.8382 9.22346 12.3969L14.0612 30.358C14.2131 30.9167 13.8771 31.4937 13.3155 31.6448C13.2188 31.6677 13.1268 31.6815 13.0393 31.6815Z" fill="#6D6D6D"/>
<path d="M15.5157 40.8681C15.0508 40.8681 14.6227 40.5613 14.4984 40.0896L14.1808 38.9172C14.0289 38.3585 14.3649 37.7815 14.9265 37.6303C15.4881 37.4792 16.068 37.8135 16.2199 38.3722L16.5375 39.5446C16.6894 40.1033 16.3534 40.6803 15.7918 40.8314C15.6952 40.8589 15.6031 40.8681 15.5157 40.8681Z" fill="#6D6D6D"/>
<path d="M60.8042 41.3856L50.5856 3.44383C50.0379 1.41508 48.1828 0 46.0747 0H6.66416C5.31089 0 4.06349 0.668619 3.31781 1.79061L0.740155 5.67866C0.109549 6.63121 -0.0837746 7.81275 0.215418 8.91642L11.1382 49.4731C11.5341 50.9386 12.8736 51.9644 14.4017 51.9644H53.329C54.3969 51.9644 55.3819 51.479 56.0309 50.6363C56.6799 49.7937 56.8963 48.722 56.6201 47.6962L56.1045 45.782L56.2196 45.6446H57.5177C58.5855 45.6446 59.5706 45.1591 60.2196 44.3165C60.8686 43.4739 61.0803 42.4114 60.8042 41.3856ZM54.581 48.2504C54.6868 48.6396 54.604 49.0472 54.3554 49.3723C54.1069 49.6929 53.734 49.8761 53.3244 49.8761H14.572L15.5755 48.3648H53.4532C53.7662 48.3648 54.0608 48.2275 54.2634 47.9893L54.4475 47.7695L54.581 48.2504ZM58.5441 43.0525C58.2956 43.3731 57.9227 43.5563 57.5131 43.5563H55.7225H54.7144C54.7006 43.5563 54.6822 43.5563 54.6684 43.5563H19.0277H18.3971C17.0438 43.5563 15.7964 44.2249 15.0508 45.3469L13.03 48.3969L2.25453 8.38062C2.11183 7.85397 2.20389 7.29525 2.50308 6.83729L5.08074 2.94924C5.43517 2.41801 6.02435 2.10202 6.66416 2.10202H46.0747C47.2346 2.10202 48.2519 2.88055 48.5511 3.99339L58.7697 41.9351C58.8709 42.3198 58.7881 42.732 58.5441 43.0525Z" fill="#6D6D6D"/>
<path d="M37.2969 70.9513L29.6191 67.6677L23.7089 70.9513C21.1635 61.5723 23.0415 55.9669 20.2889 44.605H33.8815C36.2106 54.2221 35.069 61.8608 37.2969 70.9513Z" fill="#E8B221"/>
<path d="M15.3683 21.0752H49.5867C48.7076 18.7121 47.3819 16.491 45.7386 14.5127H15.6767C15.1059 16.491 14.9725 18.7121 15.3683 21.0752Z" fill="#6D6D6D"/>
<path d="M50.5303 24.5831H16.3119C17.1496 26.8409 18.397 28.9704 19.939 30.88H50.2909C50.8065 28.9704 50.9077 26.8409 50.5303 24.5831Z" fill="#6D6D6D"/>
<path d="M42.1944 11.0047C38.1852 7.74863 33.2324 5.7153 28.3441 5.7153C23.4557 5.7153 19.5985 7.74863 17.343 11.0047H42.1944Z" fill="#6D6D6D"/>
<path d="M23.3821 34.388C27.4465 37.7997 32.5374 39.943 37.5592 39.943C42.581 39.943 46.5166 37.8043 48.7444 34.388H23.3821Z" fill="#6D6D6D"/>
</svg>
