<svg xmlns="http://www.w3.org/2000/svg" viewBox="0 0 243.08 39.67"><defs><style>.cls-1{fill:#fff;}.cls-2{fill:#e8b321;}</style></defs><g id="Layer_2" data-name="Layer 2"><g id="Layer_2-2" data-name="Layer 2"><path class="cls-1" d="M7.16,27.65l1.31-2A1.59,1.59,0,0,1,9.79,25h20.9a1.25,1.25,0,0,0,1.21-1.58L26.44,3a1.93,1.93,0,0,0-1.86-1.43H3.52a1.59,1.59,0,0,0-1.32.71L.83,4.36A1.57,1.57,0,0,0,.62,5.64L6.45,27.43a1.25,1.25,0,0,0,1.2.92h20.8a1.27,1.27,0,0,0,1.22-1.59L29.18,25H9.79"/><line class="cls-1" x1="3.67" y1="5.28" x2="3.54" y2="4.83"/><path d="M3.67,5.85a.58.58,0,0,1-.55-.42L3,5a.56.56,0,0,1,.4-.69.55.55,0,0,1,.69.39l.12.46a.57.57,0,0,1-.4.69Z"/><line class="cls-1" x1="6.93" y1="17.45" x2="4.34" y2="7.8"/><path d="M6.93,18a.56.56,0,0,1-.55-.42L3.8,8a.57.57,0,0,1,.4-.69.57.57,0,0,1,.69.4L7.47,17.3a.57.57,0,0,1-.4.69A.36.36,0,0,1,6.93,18Z"/><line class="cls-1" x1="8.25" y1="22.38" x2="8.08" y2="21.75"/><path d="M8.25,23a.58.58,0,0,1-.55-.42l-.16-.63a.56.56,0,0,1,.39-.69.57.57,0,0,1,.69.4l.17.63a.57.57,0,0,1-.4.69Z"/><path d="M32.45,23.23,27,2.85A2.49,2.49,0,0,0,24.58,1H3.52A2.15,2.15,0,0,0,1.73,2L.35,4.05A2.18,2.18,0,0,0,.07,5.79L5.91,27.57a1.81,1.81,0,0,0,1.74,1.34h20.8a1.81,1.81,0,0,0,1.76-2.29l-.27-1,.06-.07h.69a1.83,1.83,0,0,0,1.76-2.29Zm-3.33,3.68a.65.65,0,0,1-.12.6.69.69,0,0,1-.55.27H7.75L8.28,27H28.52a.54.54,0,0,0,.43-.2l.1-.12Zm2.12-2.79a.69.69,0,0,1-.55.27H9.79a2.14,2.14,0,0,0-1.79,1L6.92,27,1.16,5.5a1,1,0,0,1,.14-.83L2.67,2.58a1,1,0,0,1,.85-.45H24.58a1.36,1.36,0,0,1,1.32,1l5.46,20.38A.68.68,0,0,1,31.24,24.12Z"/><path class="cls-2" d="M19.89,39.1l-4.11-1.76L12.62,39.1c-1.36-5-.35-8-1.82-14.15h7.26C19.31,30.12,18.7,34.22,19.89,39.1Z"/><path d="M19.89,39.67a.64.64,0,0,1-.23-.05L15.82,38,12.9,39.6a.58.58,0,0,1-.5,0,.54.54,0,0,1-.32-.37,29.32,29.32,0,0,1-.89-6.71,36.11,36.11,0,0,0-.94-7.45.58.58,0,0,1,.1-.48.56.56,0,0,1,.45-.22h7.26a.57.57,0,0,1,.55.43,41.64,41.64,0,0,1,.95,7.35,38.73,38.73,0,0,0,.87,6.8.56.56,0,0,1-.18.56A.54.54,0,0,1,19.89,39.67ZM11.5,25.52a37.89,37.89,0,0,1,.82,7A29.58,29.58,0,0,0,13,38.25l2.52-1.4a.55.55,0,0,1,.5,0l3.09,1.33a43.65,43.65,0,0,1-.66-5.9,41.86,41.86,0,0,0-.83-6.73Z"/><path class="cls-2" d="M27,14.2H8.68a11.78,11.78,0,0,0,1.94,3.38H26.83A7.91,7.91,0,0,0,27,14.2Z"/><path class="cls-2" d="M8.17,12.32H26.46A12.42,12.42,0,0,0,24.4,8.79H8.34A8,8,0,0,0,8.17,12.32Z"/><path class="cls-2" d="M22.5,6.91a12,12,0,0,0-7.4-2.84A6.88,6.88,0,0,0,9.23,6.91Z"/><path class="cls-2" d="M12.47,19.47a12.06,12.06,0,0,0,7.56,3,6.86,6.86,0,0,0,6-3Z"/><path d="M76,10.11C76,16.36,71.81,20,65.84,20H60.6v8.7H53.75V.44H65.84C71.81.44,76,3.87,76,10.11Zm-6.93.09C69.07,8.06,67.9,7,65.56,7h-5v6.45h5C67.9,13.42,69.07,12.33,69.07,10.2Z"/><path d="M99.53,6.49l0,22.16H92.64V26.27a7.65,7.65,0,0,1-6.24,2.9c-5.64,0-10-4.75-10-11.6S80.84,6,86.36,6a7.68,7.68,0,0,1,6.32,3V6.49ZM92.68,17.57c0-3.06-2-5.08-4.67-5.08s-4.68,2-4.68,5.08,2.06,5.08,4.68,5.08S92.68,20.67,92.68,17.57Z"/><path d="M124.28,6.49V28.33c0,6.57-4.4,10.92-11.17,10.92-5.39,0-10.67-2.66-11.4-8.79h7.05c.53,2.22,2.3,2.7,4.15,2.7,3,0,4.52-1.41,4.52-4.59v-2.7a7.84,7.84,0,0,1-6.29,2.9c-5.64,0-10-4.75-10-11.4S105.58,6,111.14,6a7.76,7.76,0,0,1,6.29,3V6.49Zm-6.85,10.88a4.68,4.68,0,1,0-9.35,0,4.68,4.68,0,1,0,9.35,0Z"/><path d="M149,19H132.86c.32,3.43,2.5,4.88,4.88,4.88a3.86,3.86,0,0,0,3.91-2.5h7c-1.53,5.48-6.17,7.77-11,7.77-7.1,0-11.85-5-11.85-11.6A11.29,11.29,0,0,1,137.58,6C144.91,6,149.7,11.73,149,19Zm-16-4.15h8.83a4.21,4.21,0,0,0-4.35-3.63A4.42,4.42,0,0,0,133.06,14.87Z"/><path d="M175.78,14.55c0,8.26-6.33,14.1-14.47,14.1h-9.23V.44h9.23C169.53.44,175.78,6.25,175.78,14.55Zm-2.14,0c0-7-5.36-12-12.25-12h-7.17V26.6h7.17A11.83,11.83,0,0,0,173.64,14.55Z"/><path d="M196.09,19.26h-13.9l-3.83,9.39h-2.3L187.71.44h2.86l11.64,28.21h-2.29Zm-.85-2L189.12,2.38,183,17.25Z"/><path d="M231.39,14.55a14.49,14.49,0,1,1-29,0,14.49,14.49,0,1,1,29,0Zm-26.8,0a12.32,12.32,0,1,0,24.63,0,12.32,12.32,0,1,0-24.63,0Z"/><path d="M243.08,25.23a4.16,4.16,0,1,1-4.15-3.95A3.93,3.93,0,0,1,243.08,25.23Z"/></g></g></svg>