<?xml version="1.0" encoding="utf-8"?>
<!-- Generator: Adobe Illustrator 28.2.0, SVG Export Plug-In . SVG Version: 6.00 Build 0)  -->
<svg version="1.1" id="Layer_1" xmlns="http://www.w3.org/2000/svg" xmlns:xlink="http://www.w3.org/1999/xlink" x="0px" y="0px"
	 viewBox="0 0 160 32" style="enable-background:new 0 0 160 32;" xml:space="preserve">
<style type="text/css">
	.st0{fill:#FFFFFF;}
	.st1{fill:none;}
	.st2{fill:#E8B321;}
</style>
<g id="Layer_2_00000176732476570427797020000008500502899970200747_">
	<g id="Layer_2-2">
		<path class="st0" d="M7.1,21l0.8-1.3c0.2-0.3,0.5-0.4,0.8-0.4h13.3c0.4,0,0.8-0.4,0.8-0.8c0-0.1,0-0.1,0-0.2l-3.5-13
			c-0.1-0.5-0.6-0.9-1.2-0.9H4.8c-0.3,0-0.7,0.2-0.8,0.5L3.1,6.1C2.9,6.4,2.8,6.7,2.9,6.9l3.7,13.9c0.1,0.3,0.4,0.6,0.8,0.6h13.3
			c0.4,0,0.8-0.4,0.8-0.8c0-0.1,0-0.1,0-0.2l-0.3-1.1H8.8"/>
		<line class="st1" x1="4.9" y1="6.7" x2="4.8" y2="6.4"/>
		<path d="M4.9,7.1C4.7,7.1,4.6,7,4.5,6.8L4.4,6.5C4.4,6.3,4.5,6.1,4.7,6.1c0,0,0,0,0,0C4.9,6,5.1,6.1,5.1,6.3c0,0,0,0,0,0l0.1,0.3
			C5.3,6.8,5.1,7,4.9,7.1L4.9,7.1z"/>
		<line class="st1" x1="6.9" y1="14.5" x2="5.3" y2="8.3"/>
		<path d="M6.9,14.8c-0.2,0-0.3-0.1-0.4-0.3L4.9,8.4C4.9,8.2,5,8.1,5.2,8c0.2,0,0.4,0.1,0.4,0.3l1.6,6.1C7.3,14.6,7.2,14.8,6.9,14.8
			C7,14.8,7,14.8,6.9,14.8z"/>
		<line class="st1" x1="7.8" y1="17.6" x2="7.7" y2="17.2"/>
		<path d="M7.8,18c-0.2,0-0.3-0.1-0.4-0.3l-0.1-0.4c-0.1-0.2,0.1-0.4,0.2-0.4c0,0,0,0,0,0C7.8,16.8,8,17,8,17.1l0.1,0.4
			C8.2,17.7,8.1,17.9,7.8,18L7.8,18z"/>
		<path d="M23.2,18.1l-3.5-13C19.5,4.5,18.9,4,18.2,4H4.8C4.3,4,3.9,4.2,3.6,4.6L2.7,5.9C2.5,6.2,2.5,6.7,2.6,7l3.7,13.9
			c0.1,0.5,0.6,0.9,1.1,0.9h13.3c0.6,0,1.2-0.5,1.2-1.1c0-0.1,0-0.2,0-0.3l-0.2-0.6l0,0h0.4c0.6,0,1.2-0.5,1.2-1.2
			C23.2,18.4,23.2,18.3,23.2,18.1L23.2,18.1z M21.1,20.5c0,0.1,0,0.3-0.1,0.4C20.9,21,20.8,21,20.7,21H7.5l0.3-0.5h12.9
			c0.1,0,0.2,0,0.3-0.1l0.1-0.1L21.1,20.5z M22.4,18.7c-0.1,0.1-0.2,0.2-0.4,0.2H8.8c-0.5,0-0.9,0.2-1.1,0.6l-0.7,1L3.3,6.8
			c0-0.2,0-0.4,0.1-0.5L4.2,5c0.1-0.2,0.3-0.3,0.5-0.3h13.4c0.4,0,0.7,0.3,0.8,0.6l3.5,13C22.6,18.5,22.5,18.6,22.4,18.7z"/>
		<path class="st2" d="M15.2,28.3l-2.6-1.1l-2,1.1c-0.9-3.2-0.2-5.1-1.2-9H14C14.8,22.5,14.4,25.2,15.2,28.3z"/>
		<path d="M15.2,28.6c-0.1,0-0.1,0-0.1,0l-2.4-1l-1.9,1c-0.1,0-0.2,0-0.3,0c-0.1,0-0.2-0.1-0.2-0.2c-0.4-1.4-0.5-2.8-0.6-4.3
			c0-1.6-0.2-3.2-0.6-4.7c0-0.1,0-0.2,0.1-0.3c0.1-0.1,0.2-0.1,0.3-0.1H14c0.2,0,0.3,0.1,0.4,0.3c0.3,1.5,0.5,3.1,0.6,4.7
			c0.1,1.5,0.2,2.9,0.6,4.3c0,0.1,0,0.3-0.1,0.4C15.4,28.6,15.3,28.6,15.2,28.6z M9.9,19.6c0.3,1.5,0.5,3,0.5,4.5
			c0,1.2,0.2,2.5,0.4,3.7l1.6-0.9c0.1-0.1,0.2-0.1,0.3,0l2,0.8c-0.2-1.2-0.4-2.5-0.4-3.8c-0.1-1.4-0.2-2.9-0.5-4.3L9.9,19.6z"/>
		<path class="st2" d="M19.7,12.4H8.1c0.3,0.8,0.7,1.5,1.2,2.2h10.3C19.8,13.8,19.9,13.1,19.7,12.4z"/>
		<path class="st2" d="M7.7,11.2h11.7c-0.3-0.8-0.8-1.6-1.3-2.3H7.8C7.6,9.7,7.6,10.4,7.7,11.2z"/>
		<path class="st2" d="M16.9,7.7c-1.3-1.1-3-1.8-4.7-1.8c-1.5-0.1-2.9,0.6-3.7,1.8H16.9z"/>
		<path class="st2" d="M10.5,15.8c1.3,1.2,3,1.9,4.8,1.9c1.5,0.1,3-0.7,3.8-1.9H10.5z"/>
		<path d="M51,9.8c0,4-2.7,6.3-6.5,6.3h-3.3v5.5h-4.4v-18h7.7C48.3,3.6,51,5.8,51,9.8z M46.6,9.8c0-1.4-0.7-2-2.2-2h-3.2v4.1h3.2
			C45.8,11.9,46.6,11.2,46.6,9.8z"/>
		<path d="M66,7.5v14.1h-4.4v-1.5c-1,1.2-2.4,1.9-4,1.8c-3.6,0-6.4-3-6.4-7.4s2.8-7.4,6.3-7.4c1.6,0,3.1,0.7,4,1.9V7.5H66z
			 M61.6,14.5c0-2-1.3-3.2-3-3.2c-1.7,0-3,1.3-3,3.2s1.3,3.2,3,3.2C60.3,17.8,61.6,16.5,61.6,14.5z"/>
		<path d="M81.7,7.5v13.9c0,4.2-2.8,7-7.1,7c-3.4,0-6.8-1.7-7.3-5.6h4.5c0.3,1.4,1.5,1.7,2.6,1.7c1.9,0,2.9-0.9,2.9-2.9v-1.7
			c-1,1.2-2.5,1.9-4,1.8c-3.6,0-6.4-3-6.4-7.3s2.8-7.2,6.4-7.2c1.6,0,3.1,0.7,4,1.9V7.5H81.7z M77.4,14.4c0.1-1.6-1.2-3-2.8-3.1
			c-1.6-0.1-3,1.2-3.1,2.8c0,0.1,0,0.2,0,0.3c-0.1,1.6,1.2,3,2.8,3.1c1.6,0.1,3-1.2,3.1-2.8C77.4,14.6,77.4,14.5,77.4,14.4z"/>
		<path d="M97.5,15.5H87.2c0.2,2.2,1.6,3.1,3.1,3.1c1.1,0.1,2.1-0.6,2.5-1.6h4.5c-1,3.5-3.9,5-7,5c-4.5,0-7.6-3.2-7.6-7.4
			c-0.1-4,3-7.3,7-7.4c0.2,0,0.3,0,0.5,0C94.9,7.2,97.9,10.8,97.5,15.5z M87.3,12.8h5.6c-0.2-1.4-1.4-2.4-2.8-2.3
			C88.8,10.5,87.6,11.5,87.3,12.8L87.3,12.8z"/>
		<path d="M114.6,12.6c0,5.3-4,9-9.2,9h-5.9v-18h5.9C110.6,3.6,114.6,7.3,114.6,12.6z M113.2,12.6c0-4.5-3.4-7.6-7.8-7.6h-4.6v15.3
			h4.6c4.2,0.1,7.7-3.1,7.8-7.3C113.2,12.9,113.2,12.8,113.2,12.6z"/>
		<path d="M127.5,15.6h-8.9l-2.4,6h-1.5l7.4-18h1.8l7.4,18H130L127.5,15.6z M127,14.3l-3.9-9.5l-3.9,9.5L127,14.3z"/>
		<path d="M150,12.6c0,5.1-4.1,9.2-9.2,9.2s-9.2-4.1-9.2-9.2s4.1-9.2,9.2-9.2S150,7.5,150,12.6z M132.9,12.6c-0.1,4.3,3.3,8,7.6,8.1
			s8-3.3,8.1-7.6c0-0.1,0-0.3,0-0.4c0.1-4.3-3.3-8-7.6-8.1s-8,3.3-8.1,7.6C132.9,12.3,132.9,12.5,132.9,12.6z"/>
		<path d="M157.5,19.4c0.1,1.5-1.1,2.7-2.5,2.8c-1.5,0.1-2.7-1.1-2.8-2.5s1.1-2.7,2.5-2.8c0,0,0.1,0,0.1,0c1.4-0.1,2.6,1,2.6,2.4
			C157.5,19.3,157.5,19.4,157.5,19.4z"/>
	</g>
</g>
</svg>
