<?xml version="1.0" encoding="utf-8"?>
<!-- Generator: Adobe Illustrator 28.2.0, SVG Export Plug-In . SVG Version: 6.00 Build 0)  -->
<svg version="1.1" id="Layer_1" xmlns="http://www.w3.org/2000/svg" xmlns:xlink="http://www.w3.org/1999/xlink" x="0px" y="0px"
	 viewBox="0 0 243.1 39.7" style="enable-background:new 0 0 243.1 39.7;" xml:space="preserve">
<style type="text/css">
	.st0{fill:#FFFFFF;}
	.st1{fill:none;}
	.st2{fill:#E8B321;}
</style>
<g id="Layer_2_00000144321413280298949440000017660537423039493299_">
	<g id="Layer_2-2">
		<path class="st0" d="M7.2,27.6l1.3-2C8.8,25.2,9.3,25,9.8,25h20.9c0.7,0,1.3-0.6,1.3-1.2c0-0.1,0-0.2,0-0.3L26.4,3
			c-0.2-0.8-1-1.4-1.9-1.4H3.5c-0.5,0-1,0.3-1.3,0.7L0.8,4.4C0.6,4.7,0.5,5.2,0.6,5.6l5.8,21.8c0.1,0.5,0.6,0.9,1.2,0.9h20.8
			c0.7,0,1.3-0.6,1.3-1.3c0-0.1,0-0.2,0-0.3L29.2,25H9.8"/>
		<line class="st1" x1="3.7" y1="5.3" x2="3.5" y2="4.8"/>
		<path d="M3.7,5.8c-0.3,0-0.5-0.2-0.5-0.4L3,5C2.9,4.7,3.1,4.4,3.4,4.3c0,0,0,0,0,0C3.7,4.2,4,4.4,4.1,4.7c0,0,0,0,0,0l0.1,0.5
			c0.1,0.3-0.1,0.6-0.4,0.7H3.7z"/>
		<line class="st1" x1="6.9" y1="17.5" x2="4.3" y2="7.8"/>
		<path d="M6.9,18c-0.3,0-0.5-0.2-0.6-0.4L3.8,8C3.7,7.7,3.9,7.4,4.2,7.3c0.3-0.1,0.6,0.1,0.7,0.4l2.6,9.6c0.1,0.3-0.1,0.6-0.4,0.7
			C7,18,7,18,6.9,18z"/>
		<line class="st1" x1="8.2" y1="22.4" x2="8.1" y2="21.8"/>
		<path d="M8.2,23c-0.3,0-0.5-0.2-0.6-0.4L7.5,22c-0.1-0.3,0.1-0.6,0.4-0.7c0,0,0,0,0,0c0.3-0.1,0.6,0.1,0.7,0.4l0.2,0.6
			c0.1,0.3-0.1,0.6-0.4,0.7L8.2,23z"/>
		<path d="M32.5,23.2L27,2.8C26.7,1.8,25.7,1,24.6,1H3.5C2.8,1,2.1,1.4,1.7,2L0.3,4.1C0,4.6-0.1,5.2,0.1,5.8l5.8,21.8
			c0.2,0.8,0.9,1.3,1.7,1.3h20.8c1,0,1.8-0.8,1.8-1.8c0-0.2,0-0.3-0.1-0.5l-0.3-1l0.1-0.1h0.7c1,0,1.8-0.8,1.8-1.8
			C32.5,23.6,32.5,23.4,32.5,23.2L32.5,23.2z M29.1,26.9c0.1,0.2,0,0.4-0.1,0.6c-0.1,0.2-0.3,0.3-0.5,0.3H7.8L8.3,27h20.2
			c0.2,0,0.3-0.1,0.4-0.2l0.1-0.1L29.1,26.9z M31.2,24.1c-0.1,0.2-0.3,0.3-0.5,0.3H9.8c-0.7,0-1.4,0.4-1.8,1L6.9,27L1.2,5.5
			c-0.1-0.3,0-0.6,0.1-0.8l1.4-2.1c0.2-0.3,0.5-0.5,0.8-0.5h21.1c0.6,0,1.2,0.4,1.3,1l5.5,20.4C31.4,23.7,31.4,23.9,31.2,24.1z"/>
		<path class="st2" d="M19.9,39.1l-4.1-1.8l-3.2,1.8c-1.4-5-0.4-8-1.8-14.1h7.3C19.3,30.1,18.7,34.2,19.9,39.1z"/>
		<path d="M19.9,39.7c-0.1,0-0.2,0-0.2,0L15.8,38l-2.9,1.6c-0.2,0.1-0.3,0.1-0.5,0c-0.2-0.1-0.3-0.2-0.3-0.4
			c-0.6-2.2-0.9-4.4-0.9-6.7c-0.1-2.5-0.4-5-0.9-7.5c0-0.2,0-0.3,0.1-0.5c0.1-0.1,0.3-0.2,0.4-0.2h7.3c0.3,0,0.5,0.2,0.5,0.4
			c0.5,2.4,0.9,4.9,1,7.4c0.1,2.3,0.4,4.6,0.9,6.8c0.1,0.2,0,0.4-0.2,0.6C20.2,39.6,20,39.7,19.9,39.7z M11.5,25.5
			c0.5,2.3,0.8,4.6,0.8,7c0,1.9,0.3,3.8,0.7,5.7l2.5-1.4c0.2-0.1,0.3-0.1,0.5,0l3.1,1.3c-0.4-1.9-0.6-3.9-0.7-5.9
			c-0.1-2.3-0.4-4.5-0.8-6.7L11.5,25.5z"/>
		<path class="st2" d="M27,14.2H8.7c0.5,1.2,1.1,2.4,1.9,3.4h16.2C27.1,16.5,27.2,15.3,27,14.2z"/>
		<path class="st2" d="M8.2,12.3h18.3C26,11,25.3,9.8,24.4,8.8H8.3C8,9.9,8,11.1,8.2,12.3z"/>
		<path class="st2" d="M22.5,6.9c-2.1-1.8-4.7-2.8-7.4-2.8C12.8,4,10.6,5,9.2,6.9H22.5z"/>
		<path class="st2" d="M12.5,19.5c2.1,1.8,4.8,2.9,7.6,3c2.4,0.1,4.7-1,6-3H12.5z"/>
		<path class="st0" d="M76,10.1c0,6.3-4.2,9.9-10.2,9.9h-5.2v8.7h-6.8V0.4h12.1C71.8,0.4,76,3.9,76,10.1z M69.1,10.2
			c0-2.1-1.2-3.2-3.5-3.2h-5v6.4h5C67.9,13.4,69.1,12.3,69.1,10.2z"/>
		<path class="st0" d="M99.5,6.5v22.2h-6.9v-2.4c-1.5,1.9-3.8,3-6.2,2.9c-5.6,0-10-4.8-10-11.6S80.8,6,86.4,6c2.5-0.1,4.8,1,6.3,3
			V6.5H99.5z M92.7,17.6c0-3.1-2-5.1-4.7-5.1s-4.7,2-4.7,5.1s2.1,5.1,4.7,5.1S92.7,20.7,92.7,17.6z"/>
		<path class="st0" d="M124.3,6.5v21.8c0,6.6-4.4,10.9-11.2,10.9c-5.4,0-10.7-2.7-11.4-8.8h7.1c0.5,2.2,2.3,2.7,4.2,2.7
			c3,0,4.5-1.4,4.5-4.6v-2.7c-1.5,1.9-3.9,3-6.3,2.9c-5.6,0-10-4.8-10-11.4S105.6,6,111.1,6c2.5-0.1,4.8,1.1,6.3,3V6.5H124.3z
			 M117.4,17.4c0.1-2.6-1.9-4.8-4.5-4.9s-4.8,1.9-4.9,4.5c0,0.1,0,0.3,0,0.4c-0.1,2.6,1.9,4.8,4.5,4.9s4.8-1.9,4.9-4.5
			C117.4,17.7,117.4,17.5,117.4,17.4z"/>
		<path class="st0" d="M149,19h-16.1c0.3,3.4,2.5,4.9,4.9,4.9c1.7,0.1,3.3-0.9,3.9-2.5h7c-1.5,5.5-6.2,7.8-11,7.8
			c-7.1,0-11.8-5-11.8-11.6c-0.1-6.2,4.8-11.4,11-11.6c0.3,0,0.5,0,0.8,0C144.9,6,149.7,11.7,149,19z M133,14.9h8.8
			c-0.3-2.2-2.2-3.7-4.4-3.6C135.3,11.2,133.4,12.7,133,14.9L133,14.9z"/>
		<path class="st0" d="M175.8,14.6c0,8.3-6.3,14.1-14.5,14.1h-9.2V0.4h9.2C169.5,0.4,175.8,6.2,175.8,14.6z M173.6,14.6
			c0-7-5.4-12-12.2-12h-7.2v24h7.2c6.5,0.2,12-4.9,12.2-11.4C173.6,15,173.6,14.8,173.6,14.6z"/>
		<path class="st0" d="M196.1,19.3h-13.9l-3.8,9.4h-2.3l11.7-28.2h2.9l11.6,28.2h-2.3L196.1,19.3z M195.2,17.3l-6.1-14.9L183,17.2
			L195.2,17.3z"/>
		<path class="st0" d="M231.4,14.6c0,8-6.5,14.5-14.5,14.5s-14.5-6.5-14.5-14.5s6.5-14.5,14.5-14.5S231.4,6.5,231.4,14.6z
			 M204.6,14.6c-0.2,6.8,5.2,12.5,12,12.7c6.8,0.2,12.5-5.2,12.7-12c0-0.2,0-0.5,0-0.7c0.2-6.8-5.2-12.5-12-12.7
			c-6.8-0.2-12.5,5.2-12.7,12C204.6,14.1,204.6,14.3,204.6,14.6z"/>
		<path class="st0" d="M243.1,25.2c0.1,2.3-1.7,4.2-3.9,4.4s-4.2-1.7-4.4-3.9c-0.1-2.3,1.7-4.2,3.9-4.4c0.1,0,0.1,0,0.2,0
			c2.2-0.1,4,1.5,4.1,3.7C243.1,25.1,243.1,25.1,243.1,25.2z"/>
	</g>
</g>
</svg>
