<svg width="470" height="469" viewBox="0 0 470 469" fill="none" xmlns="http://www.w3.org/2000/svg">
<path d="M405 234.5C405 328.678 328.875 405 235 405C141.125 405 65 328.678 65 234.5C65 140.322 141.125 64 235 64C328.875 64 405 140.322 405 234.5Z" stroke="#FAE9E6" stroke-width="10"/>
<circle cx="235" cy="234.5" r="229.5" stroke="#212121" stroke-width="10"/>
<path d="M438 234C438 346.125 347.326 437 235.5 437C123.674 437 33 346.125 33 234C33 121.875 123.674 31 235.5 31C347.326 31 438 121.875 438 234Z" stroke="#E49585" stroke-width="10"/>
<path d="M198.348 271.83L203.62 263.864C204.8 262.089 206.792 261.025 208.932 261.025H293.159C296.489 261.025 298.917 257.88 298.055 254.685L276.054 173.005C275.142 169.624 272.06 167.268 268.532 167.268H183.681C181.54 167.268 179.548 168.332 178.369 170.107L172.819 178.477C171.818 179.995 171.511 181.868 171.987 183.623L195.504 270.933C196.089 273.112 198.071 274.62 200.33 274.62H284.141C287.471 274.62 289.899 271.475 289.036 268.281L287.084 261.025" fill="white"/>
<path d="M184.276 184.442C183.275 184.442 182.353 183.781 182.086 182.766L181.59 180.942C181.263 179.739 181.987 178.497 183.196 178.171C184.405 177.846 185.654 178.566 185.981 179.768L186.476 181.592C186.803 182.795 186.08 184.037 184.871 184.363C184.663 184.422 184.464 184.442 184.276 184.442Z" fill="#231F20"/>
<path d="M197.407 233.203C196.406 233.203 195.484 232.543 195.217 231.527L184.801 192.861C184.474 191.658 185.198 190.416 186.407 190.091C187.616 189.765 188.864 190.485 189.192 191.688L199.607 230.354C199.934 231.557 199.211 232.799 198.002 233.124C197.794 233.174 197.595 233.203 197.407 233.203Z" fill="#231F20"/>
<path d="M202.739 252.98C201.738 252.98 200.816 252.319 200.549 251.304L199.865 248.78C199.538 247.577 200.261 246.335 201.47 246.01C202.679 245.684 203.928 246.404 204.255 247.607L204.939 250.131C205.266 251.333 204.542 252.576 203.333 252.901C203.125 252.96 202.927 252.98 202.739 252.98Z" fill="#231F20"/>
<path d="M300.245 254.094L278.244 172.414C277.065 168.046 273.071 165 268.532 165H183.681C180.768 165 178.082 166.439 176.476 168.855L170.927 177.225C169.569 179.276 169.153 181.819 169.797 184.195L193.314 271.505C194.166 274.659 197.05 276.868 200.34 276.868H284.151C286.45 276.868 288.571 275.823 289.968 274.009C291.365 272.195 291.831 269.888 291.237 267.679L290.127 263.558L290.374 263.263H293.169C295.468 263.263 297.589 262.218 298.986 260.404C300.384 258.59 300.84 256.302 300.245 254.094ZM286.846 268.872C287.074 269.71 286.896 270.588 286.361 271.288C285.826 271.978 285.023 272.372 284.141 272.372H200.707L202.867 269.119H284.418C285.092 269.119 285.727 268.823 286.163 268.31L286.559 267.837L286.846 268.872ZM295.379 257.683C294.844 258.373 294.041 258.767 293.159 258.767H289.304H287.134C287.104 258.767 287.064 258.767 287.035 258.767H210.3H208.942C206.029 258.767 203.343 260.206 201.738 262.622L197.387 269.188L174.187 183.042C173.88 181.908 174.078 180.705 174.722 179.719L180.272 171.349C181.035 170.205 182.304 169.525 183.681 169.525H268.532C271.03 169.525 273.22 171.201 273.864 173.597L295.865 255.277C296.083 256.105 295.904 256.992 295.379 257.683Z" fill="black"/>
<path d="M249.633 317.742L233.103 310.674L220.378 317.742C214.898 297.551 218.941 285.484 213.015 261.025H242.28C247.294 281.728 244.836 298.173 249.633 317.742Z" fill="#E8B221"/>
<path d="M249.633 320C249.326 320 249.029 319.941 248.741 319.813L233.232 313.188L221.478 319.714C220.864 320.049 220.13 320.089 219.486 319.823C218.842 319.556 218.356 319.004 218.178 318.334C215.403 308.13 215.017 300.016 214.601 291.419C214.184 282.724 213.748 273.733 210.805 261.557C210.646 260.887 210.795 260.177 211.231 259.635C211.657 259.092 212.321 258.777 213.015 258.777H242.28C243.33 258.777 244.242 259.487 244.49 260.502C247.076 271.16 247.711 280.713 248.335 289.96C248.949 299.089 249.524 307.726 251.853 317.21C252.061 318.038 251.774 318.916 251.11 319.468C250.674 319.813 250.158 320 249.633 320ZM215.859 263.282C218.327 274.472 218.743 282.96 219.139 291.202C219.506 298.725 219.843 305.872 221.845 314.341L231.993 308.712C232.607 308.367 233.351 308.337 233.995 308.613L246.472 313.937C244.837 305.685 244.311 297.867 243.796 290.266C243.221 281.718 242.627 272.895 240.466 263.292H215.859V263.282Z" fill="#231F20"/>
<path d="M202.422 210.37H276.094C274.201 205.283 271.347 200.501 267.809 196.242H203.086C201.857 200.501 201.569 205.283 202.422 210.37Z" fill="#E8B221"/>
<path d="M278.126 217.922H204.453C206.257 222.782 208.942 227.367 212.262 231.478H277.61C278.72 227.367 278.938 222.782 278.126 217.922Z" fill="#E8B221"/>
<path d="M260.178 188.691C251.546 181.681 240.883 177.304 230.358 177.304C219.834 177.304 211.529 181.681 206.673 188.691H260.178Z" fill="#E8B221"/>
<path d="M219.675 239.03C228.426 246.374 239.386 250.988 250.198 250.988C261.01 250.988 269.484 246.384 274.28 239.03H219.675Z" fill="#E8B221"/>
</svg>
