<svg width="267" height="339" viewBox="0 0 267 339" fill="none" xmlns="http://www.w3.org/2000/svg">
<path d="M122.079 338.121C171.6 337.715 211.653 326.23 211.54 312.467C211.428 298.704 171.192 287.875 121.671 288.281C72.1504 288.686 32.0972 300.171 32.2098 313.934C32.3224 327.697 72.5582 338.526 122.079 338.121Z" fill="#231F20"/>
<path d="M50.1137 246.482C47.9855 243.008 45.3358 239.774 42.9573 236.467C42.9469 236.456 42.9364 236.435 42.926 236.425C44.7725 235.1 46.1495 233.181 47.0258 230.875C48.2463 227.673 45.6592 223.395 42.3939 222.717C34.2257 221.017 25.8696 220.287 17.524 220.767C17.3154 220.777 17.1067 220.798 16.898 220.829C11.9428 219.609 7.27971 221.549 4.18139 225.638C2.79393 227.464 3.09646 230.468 4.18139 232.336C4.91164 233.577 5.88185 234.38 7.01894 234.892C2.40798 240.285 0.530232 247.201 1.6256 254.264C2.71053 261.274 7.49883 267.512 13.685 270.84C19.9234 274.199 27.5179 275.389 34.4135 273.574C35.947 273.177 37.4179 272.582 38.8262 271.842C39.5982 272.238 40.4328 272.426 41.3299 272.384C41.9141 272.301 42.5087 272.228 43.0929 272.144C44.2196 271.831 45.1898 271.258 46.0243 270.433C46.3686 269.985 46.7128 269.536 47.0571 269.088C47.6622 268.055 47.9542 266.939 47.9647 265.739V265.51C47.9855 265.03 47.9334 264.571 47.8291 264.122C48.7679 262.912 49.6233 261.65 50.3536 260.346C52.9094 255.902 52.8051 250.884 50.1137 246.482Z" fill="#F2F2F2"/>
<path d="M263.981 71.5468C263.532 69.2204 262.176 67.2488 259.933 66.3308C257.523 65.3397 254.696 66.2995 253.027 68.2502C252.839 68.4693 252.047 66.915 251.629 66.6229C249.032 64.8285 246.121 65.0476 243.524 66.7063C242.355 67.4574 240.77 68.3859 238.808 69.3352C237.536 67.9582 235.585 67.1653 233.801 67.1758C232.33 67.1862 231.099 67.6244 230.066 68.3755C229.931 67.3948 229.805 66.4142 229.67 65.4232C229.461 63.8375 229.242 62.2519 229.023 60.6766C230.045 54.5634 229.378 48.5128 227.563 42.5979C226.749 39.9481 223.171 38.1747 220.552 38.6546C217.673 39.1866 215.274 41.3773 214.888 44.3609C213.938 51.7259 215.441 59.2266 216.421 66.5186C217.412 73.9044 218.393 81.2903 219.384 88.6866C219.238 89.3021 219.113 89.928 219.019 90.5539C218.497 94.0487 218.831 97.7416 219.53 101.195C220.166 104.356 220.834 107.809 222.274 110.729C220.563 111.387 219.092 112.701 218.476 114.391C217.193 117.928 218.737 121.454 222.086 123.05C228.074 125.898 235.115 126.91 241.656 125.773C245.474 125.105 251.588 124.333 253.841 120.901C255.625 118.178 255.385 115.34 253.81 112.284C263.032 101.81 266.631 85.4214 263.981 71.5468Z" fill="#F2F2F2"/>
<path d="M202.661 256.215C201.013 254.399 198.885 253.085 196.611 252.428C195.964 251.478 195.088 250.633 193.982 249.945C190.477 247.775 185.699 247.775 181.724 248.276C172.127 249.475 163.406 254.587 158.221 262.86C154.476 268.848 152.88 276.265 153.683 283.327C150.595 283.119 147.507 282.9 144.419 282.691C144.555 281.961 144.68 281.23 144.816 280.511C145.786 275.201 141.843 271.56 136.658 272.353C130.034 273.365 123.607 276.14 118.183 280.187C117.901 279.415 117.63 278.643 117.369 277.871C117.327 277.757 117.296 277.642 117.265 277.527C120.008 278.101 123.263 277.225 124.515 274.502C126.33 270.538 128.156 266.563 129.971 262.599C131.859 265.457 135.521 266.876 138.974 266.083C143.199 265.113 145.671 261.357 145.953 257.195C146.36 251.301 143.585 244.625 140.455 239.774C138.995 237.51 136.554 236.237 133.841 236.602C131.442 236.926 128.782 238.803 128.323 241.359C128.25 241.745 128.177 242.142 128.083 242.517C125.809 239.002 121.813 237.239 117.891 237.812C116.983 237.896 116.065 238.157 115.178 238.595C115.137 238.616 115.095 238.637 115.053 238.657C114.876 238.741 114.699 238.824 114.521 238.918C113.968 239.21 113.478 239.596 113.061 240.055C105.122 245.814 99.28 253.909 96.0669 263.214C92.5304 273.5 92.5201 286.144 97.9969 295.762C100.782 300.655 105.456 304.911 110.912 306.633C110.693 308.145 110.745 309.72 111.131 311.306C113.541 321.237 124.745 323.574 133.539 323.032C134.968 322.938 136.397 322.792 137.805 322.573C138.974 322.98 140.247 323.042 141.498 322.583C147.246 320.445 152.995 318.296 158.753 316.157C170.27 313.205 181.244 308.156 190.759 300.958C197.675 295.721 203.663 289.461 206.636 281.147C209.515 273.052 208.608 262.755 202.661 256.215Z" fill="#FFE6BB"/>
<path d="M208.159 267.408C207.606 263.976 203.152 261.754 200.001 262.776C198.906 263.131 197.998 263.674 197.289 264.341C195.484 264.216 193.648 264.8 192.261 266.219C188.036 270.517 185.897 276.745 183.341 282.096C180.66 287.678 177.99 293.269 175.309 298.85C175.006 299.476 174.777 300.154 174.641 300.853C174.484 300.999 174.349 301.166 174.234 301.364C173.639 302.355 173.034 303.347 172.44 304.338C172.023 304.306 171.605 304.338 171.188 304.463C169.592 304.932 168.799 306.309 168.277 307.78C168.215 307.958 168.173 308.124 168.152 308.291C168.048 308.364 167.933 308.437 167.829 308.51C167.193 308.98 166.827 309.554 166.681 310.138C165.669 310.67 164.605 311.098 163.5 311.4C160.213 312.308 161.611 317.43 164.908 316.522C167.151 315.907 169.216 314.926 171.063 313.674C171.428 313.737 171.824 313.706 172.221 313.539C175.027 312.402 177.468 310.837 179.534 308.615C181.203 309.074 183.007 308.969 184.384 307.926C191.061 302.888 197.591 297.849 202.495 290.974C207.408 284.079 209.515 275.764 208.159 267.408Z" fill="#F58E70" stroke="black" stroke-width="0.3634" stroke-miterlimit="10"/>
<path d="M53.0346 34.9928C46.3686 31.0078 38.2107 34.3043 35.7175 41.492C35.4984 42.1179 35.4671 42.6917 35.5714 43.2028C35.4671 43.9018 35.5819 44.632 35.9887 45.3309C36.8546 46.8123 39.1496 47.626 40.6518 46.5515C44.1883 44.0374 47.996 42.264 52.2105 41.2208C55.1106 40.5114 55.4966 36.4637 53.0346 34.9928Z" fill="#84CBB9"/>
<path d="M30.8561 110.886C30.2198 109.102 30.1155 107.474 30.6058 105.659C31.5864 102.039 26.0992 99.4626 24.3674 103.03C23.0217 105.805 21.6655 108.58 20.3198 111.366C20.0799 111.856 19.9442 112.388 19.9129 112.909C16.0844 114.37 17.8891 120.619 22.0098 119.388C23.5746 118.918 25.348 119.617 27.0067 119.221C28.728 118.804 30.1989 117.792 31.0126 116.196C31.9098 114.443 31.4821 112.649 30.8561 110.886Z" fill="#84CBB9"/>
<path d="M122.324 286.353C119.852 286.353 117.38 285.393 115.523 283.474C105.664 273.313 93.9387 246.617 92.8642 224.554C92.6139 219.327 96.6406 214.883 101.867 214.633C107.094 214.382 111.538 218.409 111.798 223.636C112.685 241.85 122.815 263.768 129.126 270.288C132.767 274.043 132.673 280.041 128.917 283.693C127.081 285.466 124.703 286.353 122.324 286.353Z" fill="#231F20"/>
<path d="M141.05 259.209C137.764 259.209 134.624 257.341 133.142 254.17C131.108 249.809 132.996 244.614 137.367 242.58C142.656 240.118 146.12 235.465 146.193 230.729C146.255 226.462 143.522 222.717 138.494 220.203C134.186 218.044 132.443 212.807 134.603 208.498C136.762 204.19 141.999 202.448 146.308 204.607C157.313 210.115 163.781 219.974 163.625 230.969C163.458 242.528 156.229 253.022 144.732 258.384C143.533 258.948 142.281 259.209 141.05 259.209Z" fill="#231F20"/>
<path d="M211.57 157.747C204.737 157.747 197.518 155.879 190.445 152.155L198.572 136.726C206.448 140.878 214.137 141.441 219.655 138.281C223.828 135.892 226.259 131.531 226.519 126.012L243.941 126.805C243.409 138.333 237.723 148.024 228.324 153.407C223.275 156.307 217.569 157.747 211.57 157.747Z" fill="#231F20"/>
<path d="M205.926 205.254C207.679 204.774 208.889 203.178 208.868 201.363C208.305 149.37 194.055 67.6346 193.721 39.6663C193.669 35.5874 184.864 35.6604 179.231 38.3206C173.598 40.9808 149.729 52.2473 149.729 52.2473L146.652 5.80392C146.433 2.54913 143.063 0.483578 140.069 1.78758C119.33 10.8009 51.7723 40.1671 25.4001 51.4545C21.9993 52.9046 19.9963 56.4723 20.5492 60.1235C25.1184 90.6477 47.902 154.846 43.0929 212.536C42.5921 218.597 71.9061 239.826 91.1115 235.277C130.326 225.982 191.812 209.145 205.926 205.254Z" fill="#F58E70" stroke="black" stroke-width="0.3634" stroke-miterlimit="10"/>
<path d="M148.999 52.237C148.947 52.1327 149.906 51.5485 151.805 50.5157C153.704 49.4934 156.552 48.0225 160.276 46.1447C164.011 44.2878 168.621 41.9927 174.036 39.2908C175.402 38.6232 176.811 37.9347 178.271 37.2148C179.836 36.4742 181.536 35.9421 183.331 35.5979C185.125 35.2641 187.024 35.0867 189.037 35.3058C190.049 35.4623 191.103 35.6709 192.177 36.2551C192.438 36.4325 192.709 36.6098 192.97 36.808C193.22 37.0584 193.45 37.3296 193.679 37.6009C193.846 37.9138 194.024 38.2372 194.138 38.571L194.316 39.6455C194.556 47.5321 195.547 56.2846 196.652 65.8195C197.779 75.3544 199.125 85.6821 200.564 96.7296C203.402 118.825 206.719 143.789 208.983 171.225C209.233 174.657 209.515 178.12 209.734 181.636C209.912 185.152 210.141 188.688 210.287 192.277C210.339 194.071 210.391 195.876 210.444 197.691C210.475 198.598 210.496 199.506 210.527 200.414C210.527 200.894 210.59 201.217 210.517 202.051C210.444 202.771 210.245 203.491 209.932 204.138C209.306 205.452 208.221 206.548 206.897 207.174C206.563 207.33 206.219 207.455 205.874 207.56L205.207 207.747L203.882 208.112C202.119 208.603 200.345 209.093 198.561 209.594C184.301 213.537 169.55 217.564 154.371 221.622C139.193 225.68 123.576 229.769 107.584 233.775C103.578 234.756 99.551 235.747 95.5034 236.748L92.4572 237.479L90.9237 237.844L89.2024 238.178C86.9073 238.532 84.6019 238.584 82.3382 238.449C77.8107 238.125 73.4709 237.03 69.3086 235.549C65.1462 234.057 61.1611 232.158 57.3325 229.957C53.9004 227.975 50.6248 225.774 47.5369 223.26C45.993 221.998 44.5012 220.652 43.1033 219.108C42.4043 218.315 41.7158 217.512 41.0898 216.51C40.9334 216.249 40.7769 216.03 40.6308 215.728L40.2031 214.831C40.0675 214.476 39.9632 214.08 39.8589 213.694C39.8067 213.255 39.7963 212.765 39.765 212.296C41.5489 188.459 39.1495 165.164 35.2688 142.985C31.4716 120.765 25.9947 99.7132 21.342 79.4542C20.1945 74.3738 19.0783 69.3559 18.2124 64.3068C17.9933 63.0446 17.7847 61.7823 17.5761 60.5305C17.3466 58.9761 17.4509 57.2965 17.9516 55.7839C18.4315 54.2608 19.2765 52.8629 20.3718 51.7154C20.9247 51.1416 21.5402 50.6409 22.1974 50.2027C22.5313 49.9941 22.8651 49.7855 23.2198 49.6185L23.7518 49.3682L24.19 49.1804C33.2033 45.331 41.9558 41.5859 50.4057 37.9764C67.316 30.7783 83.0475 24.0809 97.3811 17.9782C111.736 11.9172 124.713 6.44035 136.084 1.63118C136.793 1.32865 137.503 1.03655 138.202 0.744451L138.723 0.525387C138.89 0.452363 139.161 0.358463 139.381 0.285438C139.84 0.13939 140.319 0.0455074 140.81 0.0142113C142.75 -0.121405 144.638 0.723594 145.828 2.12149C146.422 2.82043 146.86 3.655 147.079 4.52086C147.205 4.93814 147.246 5.42844 147.278 5.804C147.298 6.14825 147.319 6.49252 147.33 6.83677C147.403 8.2138 147.476 9.55952 147.538 10.8844C147.81 16.163 148.05 20.9826 148.269 25.3119C148.686 33.9809 148.968 40.6992 149.103 45.258C149.187 49.8272 149.176 52.2266 148.999 52.237C148.821 52.2474 148.498 49.8793 148.029 45.3414C147.559 40.8035 146.954 34.1061 146.234 25.4579C145.88 21.1391 145.483 16.3299 145.056 11.0617C144.951 9.7473 144.847 8.40157 144.732 7.02454C144.701 6.68028 144.68 6.33602 144.649 5.99176C144.607 5.6788 144.597 5.45973 144.513 5.20936C144.377 4.71906 144.127 4.27049 143.783 3.8845C143.094 3.11253 142.02 2.67439 140.977 2.77871C140.716 2.79957 140.455 2.86215 140.205 2.94561C140.069 3.0082 139.986 3.01865 139.798 3.1021L139.276 3.33161C138.588 3.64457 137.889 3.95752 137.179 4.27048C125.892 9.28829 113.019 14.9946 98.7791 21.3269C84.5185 27.6174 68.8704 34.5025 52.0435 41.9197C43.6248 45.6126 34.9141 49.4308 25.9321 53.3741L25.5253 53.5514L25.2228 53.6975C25.0246 53.7914 24.8368 53.9166 24.649 54.0313C24.2839 54.2817 23.9396 54.5633 23.6371 54.8867C23.032 55.5335 22.5626 56.3159 22.3122 57.1713C22.0409 58.0268 21.9888 58.9135 22.1244 59.8315C22.3435 61.0416 22.5521 62.2622 22.7712 63.4827C23.6475 68.3754 24.7846 73.341 25.953 78.3692C30.7205 98.4822 36.3433 119.649 40.2762 142.099C42.2374 153.313 43.9691 164.82 44.8245 176.618C45.7113 188.406 45.9303 200.508 45.0019 212.64C45.0227 212.65 45.0227 212.63 45.0123 212.65C45.0436 212.713 45.054 212.776 45.0853 212.859C45.1479 212.984 45.2105 213.109 45.2731 213.235C45.3357 213.36 45.4504 213.527 45.5339 213.673C45.9095 214.278 46.4415 214.914 46.9944 215.54C48.1419 216.792 49.4668 218.013 50.8647 219.15C53.6709 221.434 56.7379 223.5 59.9405 225.346C63.5187 227.401 67.243 229.175 71.0611 230.541C74.8688 231.908 78.7913 232.878 82.6615 233.149C84.5915 233.275 86.5005 233.222 88.3366 232.941L89.6927 232.68L91.2054 232.325L94.2411 231.595C98.2783 230.614 102.295 229.634 106.29 228.653C122.262 224.689 137.857 220.652 153.046 216.656C168.225 212.671 182.986 208.718 197.257 204.868C199.041 204.388 200.815 203.908 202.588 203.429L203.913 203.074L204.57 202.896C204.654 202.865 204.748 202.844 204.831 202.803C205.154 202.657 205.436 202.385 205.593 202.062C205.76 201.676 205.77 201.613 205.739 200.476C205.718 199.579 205.697 198.682 205.676 197.785C205.634 196.001 205.593 194.217 205.561 192.444C205.447 188.897 205.248 185.381 205.092 181.907C204.904 178.423 204.643 174.98 204.435 171.569C202.421 144.279 199.396 119.305 196.871 97.1782C195.599 86.1098 194.42 75.7508 193.471 66.1637C192.542 56.5767 191.739 47.7408 191.687 39.7081L191.645 39.343C191.593 39.2282 191.53 39.1239 191.499 39.0092L191.259 38.7275C191.134 38.6545 191.019 38.5606 190.894 38.4563C190.31 38.112 189.517 37.9034 188.714 37.7677C187.076 37.5487 185.365 37.6321 183.748 37.893C182.131 38.1538 180.577 38.5919 179.189 39.197C177.708 39.8646 176.289 40.501 174.912 41.1164C169.393 43.5784 164.689 45.6857 160.881 47.3861C157.063 49.0656 154.121 50.3279 152.118 51.1416C150.105 51.9762 149.051 52.3413 148.999 52.237Z" fill="#231F20"/>
<path d="M179.231 38.3103C125.652 67.2905 83.1936 76.721 66.0121 84.8163C49.3104 78.4632 41.0795 72.0162 33.3285 59.8837C48.1524 59.2057 114.667 27.461 139.808 15.7354C139.808 15.7354 140.142 26.1778 154.977 32.9169C156.114 33.4385 155.613 38.4042 156.687 38.8319C157.741 39.2492 160.37 35.1285 161.35 35.4623C172.45 39.2805 179.231 38.3103 179.231 38.3103Z" fill="#FFE6BB"/>
<path d="M179.231 38.3102C179.273 38.5502 177.019 39.1448 172.784 38.8944C170.677 38.7692 168.079 38.4354 165.096 37.7364C164.355 37.5695 163.562 37.3713 162.811 37.1522L162.477 37.0688C162.373 37.0479 162.258 36.9854 162.154 37.0792C161.893 37.2149 161.632 37.3609 161.361 37.5069C160.453 37.9764 159.514 38.4563 158.544 38.9466C157.334 39.5412 156.009 40.261 154.716 40.8452C154.559 39.3117 154.424 37.653 154.205 36.0047L154.111 35.3788L154.038 34.972L153.965 34.6173L153.923 34.4295C153.892 34.3147 153.86 34.2 153.798 34.0957C153.746 33.9809 153.599 33.9705 153.495 33.9079L153.109 33.741L152.442 33.428C151.993 33.209 151.555 32.969 151.106 32.7291C150.199 32.2701 149.322 31.7067 148.436 31.1434C146.662 29.9855 144.92 28.5876 143.334 26.8871C141.759 25.1867 140.319 23.2151 139.266 20.9096C139.12 20.6279 139.015 20.3254 138.89 20.0333C138.828 19.8872 138.765 19.7412 138.713 19.5847L138.588 19.2405C138.525 19.0944 138.504 18.9275 138.379 18.8336C138.264 18.7293 138.087 18.698 137.941 18.7502C137.868 18.7814 137.805 18.8232 137.732 18.8545L137.628 18.9066L137.252 19.084C128.573 23.2985 118.976 27.9303 108.617 32.8021C98.2575 37.6739 87.1265 42.7856 75.3279 47.8868C69.4338 50.4531 63.3415 52.9777 57.0823 55.4292C55.507 56.0238 53.9214 56.6289 52.3357 57.2339C50.7292 57.8077 49.1122 58.3815 47.4848 58.9552C45.8678 59.5499 44.1674 60.0193 42.5087 60.5513C41.6846 60.833 40.8083 61.0521 39.9424 61.2607L37.8247 61.7927L37.9395 61.9492L38.5341 62.7733L39.7651 64.3694C41.4342 66.4663 43.2494 68.3962 45.2001 70.1384C49.0913 73.6435 53.5667 76.3767 58.2506 78.6509C59.419 79.2246 60.6083 79.7567 61.7871 80.2783C62.7677 80.6956 63.7901 80.9772 64.8437 81.0711C65.8869 81.1754 66.951 81.1233 67.9733 80.9042C68.4845 80.7999 68.9852 80.6538 69.4755 80.4765L71.2802 79.7984C76.1833 77.9415 80.9925 76.3454 85.6765 74.791C95.0445 71.6927 103.912 68.7613 112.153 65.8299C120.394 62.909 127.999 60.0193 134.916 57.2861C148.717 51.7571 159.702 46.8227 167.255 43.3176C174.839 39.875 179.043 37.966 179.231 38.3102C179.398 38.6127 175.517 41.1373 168.204 45.2162C160.902 49.3056 150.094 54.7928 136.376 60.8017C129.501 63.7748 121.917 66.894 113.686 70.0132C105.466 73.1428 96.5779 76.2515 87.2726 79.475C82.6199 81.092 77.8524 82.7402 73.1267 84.5867L71.3011 85.2961C70.5813 85.5778 69.8302 85.7968 69.0582 85.9637C67.5351 86.2976 65.939 86.3914 64.3638 86.2454C62.7886 86.0993 61.2342 85.7029 59.7633 85.077C58.5114 84.5241 57.2596 83.9816 56.0078 83.3766C51.0317 80.9981 46.066 78.025 41.695 74.113C39.5147 72.1726 37.4805 70.0236 35.6444 67.7285L34.2987 65.9864L33.6519 65.0997L33.1407 64.4007C32.9425 64.1087 32.7965 63.7957 32.6504 63.4827C32.1288 62.21 32.1705 60.76 32.7443 59.529C33.3076 58.298 34.403 57.3278 35.7383 56.9001C36.7085 56.6497 37.6682 56.3994 38.628 56.1594C39.4208 55.9612 40.2137 55.763 41.017 55.5022C42.6131 54.9806 44.2091 54.5529 45.7948 53.9687C47.3804 53.4158 48.9557 52.8525 50.5205 52.2996C52.0853 51.705 53.6397 51.1208 55.1941 50.5366C61.3803 48.1372 67.4308 45.6752 73.3145 43.1716C85.0923 38.185 96.2441 33.2298 106.666 28.5458C117.077 23.841 126.779 19.4491 135.573 15.4745L136.731 14.9425C137.211 14.7234 137.68 14.5669 138.15 14.5252C139.099 14.4208 140.09 14.7338 140.81 15.3493C141.164 15.6623 141.467 16.0274 141.676 16.4447C141.843 16.9141 142.03 17.3523 142.166 17.8426L142.322 18.3224C142.354 18.4476 142.406 18.5624 142.448 18.6876C142.542 18.9275 142.615 19.1674 142.729 19.3969C143.512 21.2956 144.67 22.996 145.963 24.4982C147.278 26.0004 148.759 27.294 150.313 28.3998C151.096 28.9423 151.868 29.4847 152.681 29.9437C153.088 30.1732 153.474 30.4236 153.881 30.6322C154.382 30.893 154.883 31.1434 155.373 31.3938C156.166 31.7798 156.625 32.5517 156.771 33.4072L156.896 34.0331L156.969 34.4921L157.021 34.8885L157.032 35.0763C157.073 35.5666 157.094 36.0673 157.105 36.5889C157.449 36.5159 157.887 36.2864 158.294 36.1299L158.607 35.9943L159.076 35.7961C159.483 35.6188 159.88 35.4414 160.276 35.2641C160.787 35.0345 161.277 34.805 161.768 34.586C162.039 34.3669 162.331 34.5547 162.602 34.6381C162.884 34.732 163.155 34.8259 163.437 34.9198C164.219 35.2015 164.918 35.4205 165.628 35.6396C168.444 36.5263 170.906 37.0584 172.92 37.413C176.988 38.1329 179.21 38.0494 179.231 38.3102Z" fill="#231F20"/>
<path d="M154.977 32.9168C155.383 33.1881 154.57 35.2223 152.525 38.0598C151.503 39.4682 150.178 41.0851 148.488 42.7021C147.632 43.5054 146.714 44.3295 145.671 45.091C145.431 45.2684 145.181 45.4561 144.941 45.6335C144.847 45.7065 144.732 45.79 144.722 45.8108L144.67 45.7483L144.44 45.5083C144.315 45.3727 144.179 45.2371 144.044 45.1119C143.814 44.8928 143.585 44.7259 143.48 44.6946C143.418 44.6842 143.439 44.7155 143.46 44.6425C143.47 44.5903 143.491 44.486 143.48 44.3608C143.48 44.2043 143.46 44.1 143.439 43.9122C143.418 43.7244 143.387 43.5366 143.345 43.3489L143.282 43.0046C143.272 42.9525 143.282 42.9942 143.282 42.9837H143.293L143.355 42.9629L143.522 42.9107L143.919 42.7647C144.2 42.6499 144.492 42.5456 144.774 42.4308C154.205 38.644 161.684 34.8572 162.195 35.723C162.707 36.5159 155.905 41.7736 146.078 45.7274C145.765 45.8526 145.452 45.9673 145.139 46.0925C144.784 46.2072 144.544 46.322 143.96 46.4472C143.866 46.468 143.762 46.4889 143.543 46.4889C143.522 46.4889 143.366 46.4889 143.282 46.4785C143.167 46.4576 143.147 46.4889 142.802 46.3533C142.667 46.3011 142.531 46.2281 142.416 46.1447C142.354 46.1134 142.041 45.8421 141.916 45.5917C141.759 45.3518 141.676 44.9763 141.676 44.8511C141.665 44.6946 141.665 44.5277 141.697 44.3608C141.79 43.9539 141.832 43.9539 141.874 43.8392C141.916 43.7557 142.009 43.6097 142.02 43.5993C142.072 43.5262 142.145 43.4428 142.187 43.3906C142.26 43.3071 142.343 43.2341 142.385 43.1924C142.604 43.0046 142.74 42.9003 142.896 42.796C143.157 42.6186 143.407 42.4413 143.668 42.264C144.617 41.6276 145.504 40.9182 146.339 40.2505C148.008 38.884 149.448 37.5382 150.658 36.3907C153.057 34.1165 154.57 32.6352 154.977 32.9168Z" fill="#231F20"/>
<path d="M253.747 111.606C253.893 111.449 254.79 111.898 255.625 113.41C256.428 114.892 257.033 117.552 255.865 120.567C254.717 123.54 251.786 126.304 247.957 127.64C246.059 128.318 243.983 128.672 241.875 128.798C239.768 128.912 237.64 128.839 235.46 128.641C233.279 128.433 231.172 128.088 229.159 127.619C227.156 127.139 225.247 126.617 223.4 125.824C222.482 125.428 221.596 124.948 220.792 124.374C219.979 123.801 219.248 123.123 218.664 122.434C217.485 121.036 216.62 119.544 216.265 117.875C216.087 117.062 216.087 116.123 216.348 115.34C216.588 114.579 216.943 113.984 217.318 113.483C218.07 112.472 218.915 111.825 219.655 111.397C220.406 110.969 221.084 110.802 221.543 110.802C222.002 110.792 222.242 110.917 222.253 111.021C222.263 111.293 221.47 111.491 220.469 112.503C219.979 113.004 219.415 113.671 218.988 114.537C218.779 114.965 218.602 115.434 218.529 115.883C218.466 116.31 218.518 116.728 218.685 117.26C219.029 118.282 219.812 119.44 220.824 120.442C221.825 121.464 223.066 122.205 224.642 122.81C226.186 123.394 228.022 123.832 229.91 124.239C231.798 124.625 233.77 124.927 235.804 125.126C239.883 125.491 243.785 125.522 246.935 124.552C250.085 123.623 252.485 121.641 253.601 119.534C254.728 117.427 254.665 115.257 254.352 113.911C254.018 112.524 253.538 111.783 253.747 111.606Z" fill="#231F20"/>
<path d="M228.909 97.147C228.648 96.7193 232.81 93.9652 239.508 89.8341C241.125 88.7805 242.815 87.5599 244.202 85.9743C244.89 85.1814 245.506 84.2947 245.944 83.3245C246.163 82.8447 246.341 82.3335 246.466 81.8328C246.57 81.3842 246.612 80.8834 246.56 80.4557C246.518 80.0176 246.372 79.6525 246.215 79.4856C246.048 79.3186 245.944 79.2456 245.579 79.2039C245.214 79.1621 244.651 79.2352 243.983 79.3604C243.315 79.4856 242.648 79.6003 241.98 79.7568C239.288 80.341 236.555 81.1964 233.864 82.3126C231.162 83.4289 228.637 84.7746 226.321 86.2559C224.026 87.7686 221.784 89.3125 220.469 91.086C219.801 91.9727 219.395 92.8907 219.186 93.9026C218.977 94.9145 218.988 95.9994 219.082 97.0739C219.301 99.2229 219.749 101.393 220.177 103.26C221.043 107.026 222.326 109.843 223.515 111.606C224.684 113.39 225.623 114.203 225.456 114.433C225.351 114.6 224.089 114.151 222.451 112.472C220.793 110.823 218.998 107.84 217.778 103.938C217.465 102.968 217.173 101.935 216.901 100.871C216.63 99.8072 216.359 98.67 216.182 97.4286C216.004 96.1872 215.921 94.8311 216.14 93.381C216.348 91.9414 216.964 90.4288 217.84 89.1978C218.717 87.9459 219.791 86.9027 220.918 85.9638C222.044 85.0354 223.213 84.2008 224.444 83.3663C226.916 81.7284 229.618 80.268 232.529 79.0578C235.429 77.8582 238.381 76.961 241.291 76.3768C242.011 76.2203 242.742 76.1056 243.461 75.9908C244.171 75.8865 245.005 75.7404 246.007 75.8656C247.008 75.9595 248.208 76.5541 248.865 77.4617C249.554 78.3589 249.762 79.3395 249.835 80.1949C249.898 81.0712 249.794 81.8849 249.575 82.6673C249.366 83.3976 249.095 84.0756 248.761 84.712C248.104 85.9847 247.269 87.0592 246.382 87.9772C244.588 89.8237 242.595 91.0338 240.812 92.004C233.645 95.6448 229.159 97.5538 228.909 97.147Z" fill="#231F20"/>
<path d="M242.084 100.099C241.615 100.266 241.02 99.8594 240.29 99.2856C239.56 98.7119 238.673 97.9817 237.64 97.3453C236.607 96.6985 235.564 96.2291 234.719 95.8326C233.895 95.4258 233.248 95.0711 233.196 94.5808C233.144 94.1114 233.76 93.548 234.959 93.3394C236.138 93.1203 237.891 93.3394 239.497 94.3409C241.104 95.3423 242.074 96.8133 242.397 97.9712C242.762 99.1396 242.533 99.9429 242.084 100.099Z" fill="#231F20"/>
<path d="M228.147 78.2545C227.657 78.2128 227.74 72.4335 228.272 63.1281C228.418 60.8017 228.575 58.2668 228.742 55.5336C228.898 52.8525 228.971 50.0254 228.262 47.3548C227.573 44.6947 226.019 42.1284 223.536 41.0643C222.315 40.5114 220.928 40.3445 219.739 40.6679C218.539 41.0017 217.475 41.8572 216.703 43.0673C215.931 44.2774 215.472 45.7483 215.357 47.1984C215.232 48.7006 215.409 50.255 215.702 51.8093C216.004 53.3637 216.421 54.9285 216.818 56.5142C217.214 58.0998 217.558 59.6751 217.861 61.2086C219.071 67.353 219.52 72.9864 219.572 77.7016C219.655 87.1531 218.289 92.8698 217.882 92.8072C217.329 92.7551 217.788 86.9966 217.079 77.8059C216.703 73.2263 216.015 67.7808 214.679 61.8762C214.335 60.3949 213.97 58.8927 213.553 57.3592C213.135 55.8257 212.666 54.2087 212.311 52.4874C211.956 50.7557 211.717 48.8988 211.852 46.9375C212.009 44.945 212.593 42.9525 213.73 41.1582C214.846 39.3743 216.661 37.8408 218.831 37.2671C220.991 36.6933 223.181 37.0584 224.997 37.9034C226.833 38.7275 228.345 40.1463 229.368 41.6798C230.421 43.2237 231.058 44.9138 231.444 46.562C232.205 49.9003 231.955 53.0194 231.683 55.7735C231.36 58.4962 231.058 61.0313 230.786 63.3576C229.597 72.6004 228.637 78.2963 228.147 78.2545Z" fill="#231F20"/>
<path d="M240.186 76.6691C239.654 76.6274 239.528 74.8957 238.955 72.5172C238.631 71.3592 238.13 70.0239 237.212 69.1894C236.347 68.3444 235.011 67.9584 233.457 68.24C233.06 68.2922 232.779 68.407 232.549 68.5008C232.372 68.6365 232.205 68.699 232.069 68.9181C231.767 69.2937 231.496 70.0761 231.308 70.8585C230.911 72.4441 230.609 74.0507 230.265 75.3443C229.597 77.9731 228.888 79.5484 228.408 79.4649C227.917 79.3814 227.761 77.6915 227.782 75.0104C227.813 73.6543 227.834 72.0895 228.105 70.2013C228.272 69.2624 228.418 68.1879 229.201 66.9569C229.566 66.3414 230.202 65.7885 230.859 65.4025C231.527 65.0583 232.205 64.8496 232.821 64.7453C234.062 64.5262 235.366 64.5784 236.576 64.9644C237.786 65.3399 238.861 66.091 239.591 66.9777C241.093 68.7825 241.343 70.7333 241.406 72.1834C241.406 75.1252 240.613 76.7108 240.186 76.6691Z" fill="#231F20"/>
<path d="M240.488 91.3675C240.759 91.3362 240.957 92.1081 241.896 92.7966C242.355 93.1305 243.013 93.4434 243.764 93.4956C244.483 93.5478 245.37 93.3287 246.184 92.7862C247.018 92.2333 247.749 91.4092 248.312 90.3034C248.875 89.1976 249.282 87.831 249.626 86.2871C250.336 83.2409 250.743 79.7983 250.68 76.1993C250.638 74.405 250.492 72.6315 250.242 70.9728C250.012 69.3559 249.564 67.9684 248.834 67.2695C248.469 66.9044 248.062 66.6957 247.561 66.5601C247.06 66.4558 246.507 66.4662 245.954 66.5705C244.88 66.7687 243.805 67.4155 243.221 68.0414C242.616 68.6882 242.272 69.6688 242.022 70.5451C241.771 71.4318 241.604 72.2664 241.437 72.9341C241.114 74.2902 240.791 75.0413 240.551 75.01C240.311 74.9787 240.165 74.2068 240.071 72.8089C240.029 72.1099 239.998 71.2441 240.081 70.2009C240.185 69.1681 240.342 67.8745 241.239 66.5288C241.719 65.8403 242.272 65.3291 242.94 64.8492C243.607 64.3798 244.358 63.9834 245.224 63.733C246.09 63.4826 247.06 63.3574 248.093 63.4931C249.115 63.6391 250.211 64.1086 251.045 64.8701C251.901 65.6212 252.474 66.581 252.871 67.5303C253.267 68.49 253.497 69.4498 253.664 70.3991C253.987 72.2456 254.175 74.1546 254.217 76.1367C254.29 80.08 253.737 83.846 252.777 87.1112C252.318 88.7386 251.744 90.3556 250.847 91.7743C249.971 93.1931 248.719 94.3614 247.373 94.9874C246.017 95.6342 244.567 95.7802 243.357 95.436C242.178 95.0917 241.364 94.4032 240.884 93.746C240.394 93.0783 240.248 92.4315 240.238 92.0142C240.248 91.5865 240.373 91.3779 240.488 91.3675Z" fill="#231F20"/>
<path d="M252.6 69.9404C252.495 69.93 252.37 69.6587 252.433 69.1267C252.495 68.6155 252.746 67.8122 253.445 67.0507C254.123 66.2787 255.239 65.5485 256.752 65.2981C258.296 65.0478 260.09 65.5068 261.613 66.6021C263.136 67.6662 264.419 69.3875 265.139 71.3696C265.88 73.3517 266.151 75.5319 266.276 77.6809C266.547 82.0102 266.318 86.8298 265.348 91.7642C264.398 96.6777 262.823 101.31 260.622 105.169C258.442 109.04 255.594 112.034 252.829 113.943C250.065 115.883 247.446 116.801 245.621 117.135C243.785 117.479 242.741 117.333 242.721 117.114C242.679 116.853 243.628 116.53 245.214 115.82C246.789 115.111 249.001 113.953 251.306 111.961C253.612 109.989 255.938 107.193 257.764 103.605C259.61 100.037 260.987 95.7388 261.884 91.0861C262.792 86.4439 263.105 81.9164 263.032 77.8166C263 75.7615 262.854 73.8941 262.374 72.3085C261.915 70.7124 261.102 69.4605 260.09 68.5738C259.099 67.6975 257.93 67.2594 256.95 67.2698C255.928 67.2802 255.009 67.6349 254.384 68.0731C253.09 68.9598 252.881 69.9926 252.6 69.9404Z" fill="#231F20"/>
<path d="M260.945 87.4766C261.164 87.5288 261.363 87.873 261.331 88.499C261.3 89.1145 261.018 90.0325 260.246 90.9192C259.474 91.7746 258.223 92.6196 256.512 92.7344C256.084 92.7552 255.635 92.7344 255.176 92.6405C254.759 92.5675 254.133 92.338 253.726 92.0459C252.84 91.4617 252.266 90.6688 251.849 89.876C251.035 88.2695 250.868 86.7255 250.858 85.3694C250.868 84.0132 251.066 82.8448 251.358 81.9059C251.932 80.0177 252.704 79.0371 253.153 79.1519C253.643 79.2771 253.747 80.4663 253.841 82.2084C253.883 83.0743 253.956 84.0967 254.112 85.1503C254.269 86.2039 254.53 87.341 254.989 88.2278C255.218 88.6659 255.479 88.9997 255.677 89.1562C255.792 89.2814 256.115 89.417 256.491 89.4587C257.221 89.5422 258.014 89.3127 258.629 88.9997C259.871 88.3738 260.445 87.3619 260.945 87.4766Z" fill="#231F20"/>
<path d="M72.0554 175.728C73.5132 175.598 73.4468 161.462 71.9073 144.153C70.3677 126.844 67.9379 112.918 66.4802 113.047C65.0225 113.177 65.0889 127.314 66.6284 144.622C68.168 161.931 70.5977 175.858 72.0554 175.728Z" fill="#231F20"/>
<path d="M75.8804 197.055C76.0856 192.03 75.0666 187.907 73.6044 187.847C72.1421 187.788 70.7904 191.813 70.5852 196.839C70.38 201.865 71.399 205.987 72.8612 206.047C74.3235 206.107 75.6752 202.081 75.8804 197.055Z" fill="#231F20"/>
<path d="M24.4717 230.927C19.6625 230.927 15.5419 227.276 15.0516 222.384C12.3393 195.187 26.1721 176.159 51.1569 172.706C56.3416 171.997 61.1299 175.617 61.8393 180.801C62.5591 185.986 58.9287 190.774 53.744 191.484C35.2167 194.04 32.7339 208.676 33.9127 220.506C34.4343 225.711 30.6266 230.354 25.421 230.875C25.0977 230.917 24.7847 230.927 24.4717 230.927Z" fill="#231F20"/>
<path d="M39.473 237.26C39.3895 236.999 40.5475 236.529 42.3836 235.455C43.2807 234.912 44.3761 234.193 45.2524 233.139C46.1182 232.096 46.692 230.708 46.0974 229.352C45.8261 228.674 45.3045 227.985 44.6473 227.36C43.9901 226.734 43.1137 226.191 42.1957 225.659C40.2971 224.637 38.0647 223.781 35.6653 223.072C33.2555 222.373 30.6579 221.831 27.956 221.486C26.6103 221.34 25.2333 221.205 23.8667 221.225C22.4792 221.236 21.0396 221.299 19.5895 221.434C16.6999 221.716 13.8832 222.175 11.3274 222.936C8.79238 223.677 6.37214 224.762 5.05771 226.264C4.71345 226.629 4.52565 227.015 4.31701 227.422L4.09798 228.1C4.06668 228.33 4.03535 228.549 3.99362 228.768C3.93103 229.644 4.19186 230.489 4.68217 231.251C4.88038 231.658 5.25594 231.981 5.5376 232.346C5.91316 232.649 6.21567 233.014 6.63295 233.274C7.39449 233.848 8.22907 234.328 9.06364 234.735C12.4228 236.342 15.5524 237.03 17.6596 237.541C19.7878 238.042 20.9874 238.355 20.9666 238.616C20.9457 238.845 19.7147 239.002 17.4719 238.908C15.2394 238.803 11.9742 238.511 8.06214 237.03C7.09196 236.644 6.08007 236.175 5.07859 235.528C4.56742 235.246 4.09793 234.798 3.5972 234.422C3.14862 233.942 2.63748 233.525 2.26193 232.909C1.4378 231.783 0.843173 230.26 0.895334 228.653C0.937062 228.267 0.978785 227.871 1.02051 227.474C1.10397 227.088 1.21871 226.723 1.33346 226.337C1.62556 225.586 2.02196 224.804 2.55399 224.199C3.57633 222.947 4.8595 222.029 6.17394 221.319C7.50924 220.631 8.89668 220.047 10.3259 219.619C13.1842 218.722 16.1887 218.211 19.2766 217.908C20.8205 217.762 22.354 217.699 23.8875 217.699C25.4523 217.699 26.9441 217.866 28.4151 218.044C31.336 218.461 34.0901 219.108 36.6459 219.953C39.2018 220.808 41.5907 221.831 43.6979 223.124C44.7411 223.813 45.7427 224.512 46.5981 225.43C47.4326 226.337 48.1316 227.37 48.4967 228.559C48.8723 229.738 48.7993 231.042 48.382 232.064C47.9751 233.087 47.3596 233.9 46.7128 234.495C45.4192 235.716 44.0735 236.289 43.0095 236.696C40.7979 237.458 39.5251 237.458 39.473 237.26Z" fill="#231F20"/>
<path d="M45.2002 256.256C45.4088 256.162 46.2121 257.206 47.2866 259.375C47.7978 260.471 48.3924 261.869 48.6845 263.653C48.9662 265.437 48.9453 267.638 47.8395 269.87C47.5683 270.423 47.2031 270.965 46.7754 271.466C46.5877 271.706 46.2539 271.988 45.9618 272.238C45.6488 272.457 45.315 272.666 44.9812 272.802C43.6146 273.417 42.2688 273.511 40.9961 273.615C39.7338 273.709 38.4611 273.73 37.4388 273.97C37.1675 274.033 36.9902 274.095 36.7294 274.199C36.4581 274.314 36.1765 274.439 35.8844 274.575C35.2898 274.867 34.6743 275.17 34.0588 275.472C32.7756 276.098 31.2108 276.797 29.3748 276.901C27.664 277.037 25.7549 276.568 24.284 275.91C22.8026 275.263 21.5925 274.69 20.2781 274.418C19.8295 274.314 19.141 274.325 18.4107 274.377C17.6283 274.439 16.8355 274.502 16.0427 274.565C15.1977 274.617 14.3109 274.669 13.3199 274.554C12.8296 274.502 12.2767 274.377 11.7134 274.158C11.1187 273.918 10.5659 273.521 10.1695 273.125C9.39748 272.322 8.94886 271.529 8.56288 270.819C8.17689 270.11 7.84311 269.442 7.49886 268.921C7.33194 268.66 7.16501 268.43 7.01896 268.264C6.92507 268.159 6.6643 267.94 6.39306 267.742C5.87146 267.346 5.26635 266.96 4.64042 266.521C4.0145 266.083 3.33645 265.593 2.72096 264.957C2.41844 264.633 2.1159 264.289 1.86553 263.903C1.72991 263.715 1.62557 263.507 1.51081 263.319L1.23963 262.766C-0.126964 259.761 -0.0539548 256.788 0.0503656 254.285C0.17555 251.729 0.551106 249.361 1.03098 247.253C1.99073 243.039 3.33648 239.795 4.50487 237.687C5.66282 235.559 6.65385 234.61 6.83119 234.735C7.05026 234.881 6.4869 236.049 5.75666 238.24C5.01598 240.42 4.08754 243.654 3.48248 247.712C3.17995 249.747 2.96089 251.958 2.97132 254.358C2.97132 256.747 3.10696 259.271 4.16059 261.347C4.30664 261.618 4.42141 261.837 4.56746 262.025C4.70307 262.223 4.8804 262.411 5.06817 262.599C5.45416 262.975 5.95486 263.329 6.52862 263.715C7.10238 264.091 7.74918 264.487 8.42726 264.977C8.76108 265.217 9.09496 265.457 9.52267 265.885C9.88779 266.271 10.1694 266.657 10.4094 267.033C10.8997 267.773 11.244 268.472 11.6091 269.109C11.9638 269.745 12.3289 270.298 12.6418 270.621C12.7983 270.767 12.9026 270.819 13.0383 270.892C13.2156 270.955 13.4347 271.018 13.7372 271.049C14.3214 271.112 15.0412 271.091 15.7923 271.039C16.5955 270.976 17.3989 270.913 18.1917 270.851C19.0367 270.809 19.9442 270.757 21.0292 270.986C22.7818 271.362 24.3779 272.155 25.6506 272.728C26.9337 273.313 27.9978 273.573 29.2079 273.532C30.3033 273.5 31.4404 273.094 32.6609 272.53C33.3077 272.238 33.9336 271.957 34.5596 271.664C34.8934 271.518 35.2272 271.383 35.5819 271.258C35.947 271.132 36.406 270.986 36.7815 270.934C38.3463 270.653 39.6608 270.726 40.8605 270.694C42.0497 270.673 43.1346 270.6 43.8962 270.308C44.0944 270.246 44.2509 270.152 44.4074 270.068C44.543 269.954 44.6682 269.901 44.8351 269.714C45.1481 269.401 45.4193 269.056 45.6384 268.691C46.546 267.189 46.7859 265.395 46.7128 263.893C46.6398 262.349 46.2956 260.992 45.993 259.887C45.3567 257.644 44.9603 256.361 45.2002 256.256Z" fill="#231F20"/>
<path d="M47.3804 263.694C47.1927 263.183 48.9974 262.349 50.5935 260.012C51.3864 258.864 52.1062 257.331 52.3565 255.589C52.6278 253.826 52.3565 252.021 51.3655 250.112C50.4162 248.213 49.0182 246.398 47.8707 244.635C46.7128 242.893 45.7113 241.297 44.908 239.93C43.3015 237.187 42.5087 235.351 42.9051 235.069C43.3015 234.787 44.8037 236.102 46.9319 238.459C47.9959 239.638 49.206 241.078 50.51 242.716C51.7723 244.353 53.3058 246.127 54.5368 248.537C55.1314 249.736 55.6009 251.03 55.7678 252.397C55.9451 253.742 55.8303 255.046 55.5591 256.225C55.0062 258.593 53.7649 260.429 52.4922 261.65C51.209 262.891 49.8946 263.517 48.9557 263.757C48.0168 264.018 47.4535 263.913 47.3804 263.694Z" fill="#231F20"/>
<path d="M8.01 262.849C8.99061 262.756 9.97123 264.571 10.8267 266.73C11.6612 268.9 12.1828 270.893 11.4004 271.487C11.004 271.769 10.3259 271.591 9.5748 270.986C8.83413 270.381 8.0517 269.338 7.5301 268.013C7.01893 266.699 6.87288 265.395 7.0085 264.446C7.15455 263.496 7.53012 262.902 8.01 262.849Z" fill="#231F20"/>
<path d="M19.4434 269.38C20.3197 268.91 21.8011 269.995 23.3659 271.268C24.8994 272.583 26.2138 273.855 25.9113 274.805C25.7444 275.253 25.108 275.503 24.2004 275.41C23.2928 275.316 22.1245 274.846 21.0917 273.98C20.0589 273.115 19.3913 272.04 19.1514 271.164C18.8905 270.287 19.0261 269.63 19.4434 269.38Z" fill="#231F20"/>
<path d="M37.564 269.307C37.9813 269.547 38.1483 270.183 37.9292 271.049C37.7205 271.904 37.105 272.958 36.1348 273.824C35.1542 274.69 34.038 275.169 33.1617 275.263C32.275 275.368 31.6595 275.128 31.4822 274.69C31.1484 273.761 32.3585 272.468 33.7981 271.174C35.2481 269.912 36.6773 268.858 37.564 269.307Z" fill="#231F20"/>
<path d="M37.0893 262.959C38.0304 262.687 38.2484 260.578 37.5763 258.247C36.9042 255.917 35.5964 254.248 34.6554 254.519C33.7143 254.79 33.4963 256.9 34.1684 259.23C34.8405 261.561 36.1483 263.23 37.0893 262.959Z" fill="#231F20"/>
<path d="M24.6699 257.571C25.6505 257.613 26.3808 259.031 26.3077 260.732C26.2347 262.432 25.3793 263.788 24.4091 263.747C23.4389 263.705 22.6982 262.286 22.7713 260.586C22.8443 258.875 23.6997 257.519 24.6699 257.571Z" fill="#231F20"/>
<path d="M13.2782 251.499C14.238 251.364 15.2708 253.241 14.9995 255.672C14.7283 258.092 13.3095 259.699 12.4019 259.365C11.4734 259.031 11.2752 257.247 11.4839 255.286C11.7134 253.325 12.308 251.625 13.2782 251.499Z" fill="#231F20"/>
<path d="M129.95 261.973C130.315 261.848 130.889 262.557 132.151 263.465C133.361 264.352 135.416 265.551 137.732 265.468C138.306 265.457 138.869 265.311 139.433 265.134C139.694 264.998 139.986 264.894 140.226 264.748C140.445 264.571 140.716 264.456 140.893 264.237C141.331 263.893 141.613 263.361 141.905 262.787C142.166 262.171 142.364 261.451 142.479 260.638C142.927 257.362 142.281 253.022 141.384 248.756C140.914 246.628 140.319 244.614 139.548 242.893C138.776 241.172 137.805 239.722 136.741 239.023C136.23 238.605 135.667 238.48 135.093 238.324C134.78 238.334 134.488 238.261 134.154 238.292C133.831 238.344 133.487 238.345 133.174 238.418C131.89 238.689 130.878 239.304 130.086 240.17C129.282 241.036 128.73 242.11 128.333 243.112C127.937 244.124 127.676 245.063 127.467 245.856C127.05 247.431 126.831 248.38 126.455 248.422C126.101 248.453 125.621 247.535 125.402 245.73C125.308 244.833 125.276 243.707 125.464 242.382C125.662 241.067 126.069 239.513 127.081 237.938C128.072 236.373 129.825 234.871 131.984 234.182C132.516 233.994 133.09 233.911 133.664 233.786C134.248 233.681 134.895 233.702 135.521 233.681C136.804 233.807 138.191 234.14 139.339 234.881C141.728 236.289 143.178 238.501 144.263 240.681C145.348 242.893 146.057 245.23 146.579 247.608C147.09 250.008 147.445 252.282 147.622 254.608C147.778 256.924 147.789 259.24 147.288 261.556C147.038 262.714 146.641 263.861 146.047 264.946C145.421 266.01 144.628 267.033 143.595 267.721C141.582 269.171 139.37 269.453 137.482 269.234C135.583 269.004 134.102 268.201 132.996 267.398C131.88 266.574 131.118 265.676 130.607 264.873C129.595 263.235 129.627 262.067 129.95 261.973Z" fill="#231F20"/>
<path d="M119.925 297.828C120.061 298.152 119.08 298.913 117.056 299.362C116.044 299.581 114.782 299.737 113.259 299.633C112.497 299.56 111.663 299.466 110.776 299.174C109.889 298.913 108.94 298.464 108.043 297.724C107.584 297.369 107.187 296.9 106.801 296.389C106.478 295.877 106.113 295.231 105.956 294.74C105.539 293.697 105.268 292.508 105.205 291.256C105.111 289.994 105.32 288.69 105.675 287.417C105.894 286.801 106.092 286.144 106.405 285.57C106.551 285.268 106.708 284.976 106.854 284.673C107.031 284.392 107.208 284.12 107.386 283.839C108.846 281.606 110.818 279.76 112.956 278.174C114.02 277.35 115.168 276.672 116.326 275.942C117.505 275.305 118.694 274.606 119.935 274.053C120.551 273.761 121.166 273.469 121.782 273.188C122.408 272.927 123.034 272.676 123.649 272.426C124.87 271.894 126.163 271.518 127.394 271.091C129.919 270.361 132.464 269.829 135.02 269.745C137.555 269.662 140.153 270.058 142.406 271.226C144.659 272.363 146.36 274.398 146.986 276.599C147.591 278.748 147.153 280.793 146.527 282.211C145.88 283.661 145.087 284.673 144.399 285.424C143.001 286.916 141.989 287.448 141.728 287.219C141.436 286.979 141.916 285.967 142.677 284.277C143.397 282.639 144.451 280.052 143.418 277.778C142.917 276.735 141.926 275.723 140.497 275.191C139.078 274.627 137.273 274.429 135.291 274.617C133.309 274.805 131.171 275.326 128.97 276.036C127.874 276.453 126.758 276.797 125.642 277.308C125.078 277.548 124.515 277.778 123.952 278.018C123.388 278.278 122.825 278.55 122.262 278.821C121.104 279.332 120.061 279.958 118.986 280.511C117.974 281.137 116.931 281.711 116.023 282.378C114.166 283.672 112.56 285.091 111.433 286.593C110.296 288.095 109.681 289.67 109.618 291.193C109.576 291.955 109.649 292.716 109.848 293.436C109.889 293.624 109.931 293.801 109.994 293.906C110.046 294.031 110.067 294.166 110.14 294.281C110.275 294.511 110.4 294.751 110.599 294.949C111.329 295.815 112.623 296.347 113.76 296.691C114.928 297.035 116.034 297.181 116.941 297.286C118.757 297.505 119.8 297.473 119.925 297.828Z" fill="#231F20"/>
<path d="M141.039 321.78C140.914 321.394 144.148 320.194 149.761 317.722C152.556 316.47 155.926 314.864 159.473 312.506C161.236 311.317 163.041 309.94 164.814 308.333C166.577 306.706 168.278 304.838 169.915 302.721C170.771 301.688 171.459 300.54 172.242 299.414C172.92 298.204 173.671 297.014 174.276 295.69C175.569 293.102 176.686 290.265 177.698 287.229C178.73 284.204 179.669 281.001 180.765 277.653C181.891 274.314 183.081 270.778 185.376 267.304C185.678 266.876 186.033 266.459 186.356 266.042L186.867 265.416L187.483 264.842C187.9 264.466 188.307 264.06 188.745 263.726C189.183 263.392 189.632 263.089 190.101 262.808C191.958 261.66 194.055 260.847 196.319 260.492C198.572 260.137 201.045 260.304 203.36 261.222C205.687 262.161 207.658 263.851 209.025 265.833C210.412 267.826 211.278 270.1 211.654 272.478C212.019 274.867 211.873 277.225 211.414 279.489C210.955 281.752 210.183 283.891 209.255 285.925C208.775 286.937 208.211 287.959 207.658 288.961C207.033 289.9 206.469 290.901 205.77 291.788C203.089 295.429 199.98 298.506 196.726 301.26C193.471 304.014 190.049 306.424 186.565 308.573C179.628 312.882 172.304 316.084 165.179 318.317C158.075 320.549 151.211 322.135 144.743 323.324C138.254 324.472 132.183 325.306 126.445 325.379C125.016 325.4 123.576 325.337 122.126 325.16C120.624 324.878 119.184 324.472 117.953 323.773C115.439 322.469 113.53 320.57 112.216 318.546C110.901 316.512 110.181 314.363 109.785 312.391C109.649 311.39 109.462 310.44 109.493 309.533C109.483 309.084 109.472 308.636 109.462 308.208C109.483 307.78 109.535 307.363 109.566 306.956C109.608 306.549 109.639 306.163 109.681 305.788C109.722 305.412 109.816 305.057 109.889 304.703C110.046 304.004 110.15 303.347 110.327 302.762C110.724 301.594 110.995 300.603 111.36 299.852C112.07 298.339 112.518 297.599 112.685 297.672C112.852 297.734 112.737 298.611 112.383 300.175C112.184 300.958 112.091 301.949 111.871 303.086C111.778 303.66 111.767 304.286 111.694 304.943C111.673 305.277 111.621 305.61 111.621 305.965C111.621 306.32 111.631 306.674 111.631 307.05C111.642 307.415 111.632 307.801 111.652 308.187C111.694 308.573 111.746 308.959 111.788 309.366C111.83 310.18 112.08 310.993 112.257 311.849C112.748 313.518 113.478 315.27 114.667 316.867C115.836 318.452 117.473 319.871 119.445 320.758C120.415 321.258 121.5 321.467 122.575 321.634C123.743 321.717 125.016 321.728 126.341 321.644C131.671 321.342 137.618 320.33 143.898 319.016C150.178 317.68 156.854 315.959 163.666 313.685C170.458 311.421 177.259 308.323 183.832 304.181C187.107 302.116 190.3 299.821 193.314 297.254C196.319 294.688 199.156 291.84 201.483 288.679C202.098 287.907 202.557 287.062 203.11 286.259C203.569 285.424 204.018 284.611 204.435 283.745C205.238 281.992 205.875 280.208 206.24 278.445C206.615 276.682 206.709 274.919 206.469 273.292C206.229 271.665 205.635 270.1 204.748 268.806C203.872 267.513 202.714 266.542 201.42 265.99C200.106 265.458 198.583 265.291 197.059 265.52C195.536 265.729 194.024 266.292 192.678 267.085C192.344 267.283 192.021 267.502 191.708 267.721C191.405 267.951 191.165 268.212 190.884 268.441L190.477 268.796L190.112 269.244C189.872 269.547 189.621 269.818 189.381 270.131C187.577 272.739 186.325 275.994 185.188 279.186C184.051 282.399 183.008 285.633 181.85 288.731C180.702 291.84 179.419 294.824 177.917 297.588C177.207 298.986 176.331 300.28 175.538 301.563C174.62 302.783 173.786 304.025 172.826 305.089C170.979 307.28 169.029 309.22 167.036 310.879C165.033 312.527 162.999 313.893 161.048 315.031C157.105 317.294 153.485 318.671 150.512 319.652C144.545 321.571 141.144 322.093 141.039 321.78Z" fill="#231F20"/>
<path d="M155.644 287.574C155.488 287.667 155.164 287.459 154.684 286.948C154.455 286.687 154.142 286.363 153.86 285.936C153.579 285.508 153.266 285.007 152.932 284.423C151.67 282.086 150.407 278.237 150.533 273.344C150.647 268.504 152.202 262.537 156.416 257.362C158.523 254.786 161.184 252.574 164.167 250.738C167.151 248.892 170.489 247.431 174.067 246.45C177.645 245.47 181.307 245 184.896 245.188C185.793 245.261 186.68 245.345 187.566 245.48C188.443 245.668 189.319 245.772 190.164 246.054C191.009 246.315 191.875 246.555 192.605 246.868C193.366 247.16 194.118 247.462 194.837 247.817C197.748 249.152 200.366 250.821 202.536 252.751C204.716 254.671 206.406 256.83 207.617 258.969C208.827 261.107 209.609 263.194 210.016 265.061C210.12 265.531 210.235 265.969 210.319 266.407C210.381 266.845 210.433 267.262 210.485 267.669C210.611 268.472 210.642 269.213 210.642 269.87C210.694 271.195 210.558 272.207 210.433 272.896C210.298 273.584 210.141 273.939 209.953 273.939C209.766 273.939 209.567 273.595 209.359 272.948C209.15 272.301 208.952 271.341 208.597 270.162C207.919 267.805 206.918 264.373 204.445 260.982C202.056 257.561 198.092 254.379 192.876 252.292C190.195 251.197 187.629 250.456 184.645 250.383C181.703 250.289 178.574 250.717 175.476 251.562C169.279 253.263 163.739 256.549 160.14 260.523C156.531 264.55 154.799 269.474 154.267 273.626C153.704 277.82 154.257 281.314 154.841 283.661C155.008 284.246 155.154 284.767 155.269 285.237C155.383 285.706 155.529 286.082 155.602 286.405C155.78 287.073 155.801 287.469 155.644 287.574Z" fill="#231F20"/>
<path d="M143.522 283.265C143.825 282.295 145.984 282.201 148.29 281.898C150.626 281.658 152.598 281.251 153.193 282.013C153.485 282.399 153.224 283.15 152.421 283.859C151.638 284.579 150.282 285.216 148.707 285.403C147.121 285.602 145.682 285.278 144.764 284.788C143.835 284.318 143.397 283.713 143.522 283.265Z" fill="#231F20"/>
<path d="M107.479 306.195C107.406 306.361 107.031 306.382 106.363 306.257C105.675 306.153 104.746 305.809 103.557 305.287C101.251 304.171 98.0592 301.959 95.2217 298.214C92.3842 294.511 89.9118 289.316 89.0355 283.129C88.1384 276.974 88.8999 270.089 91.0072 263.423C92.0504 260.085 93.344 256.945 94.7732 254.024C96.2023 251.103 97.7046 248.349 99.4363 245.814C102.837 240.734 107.448 236.769 112.257 235.413C116.952 233.994 121.093 234.839 123.43 236.102C124.035 236.394 124.515 236.769 124.932 237.051C125.318 237.395 125.642 237.677 125.871 237.948C126.309 238.501 126.455 238.845 126.341 238.991C126.069 239.325 124.922 238.522 122.7 238.032C120.53 237.52 117.15 237.395 113.509 238.95C109.92 240.41 106.374 243.821 103.536 248.485C102.096 250.811 100.761 253.461 99.478 256.246C98.1949 259.031 97.0265 261.963 96.0772 265.019C94.1472 271.122 93.3752 277.183 93.8968 282.566C94.3976 287.928 96.2024 292.612 98.3201 296.117C100.427 299.664 102.879 302.032 104.663 303.566C105.57 304.306 106.29 304.891 106.812 305.308C107.312 305.715 107.552 306.028 107.479 306.195Z" fill="#231F20"/>
<path d="M115.648 316.439C115.616 316.251 117.192 315.855 120.06 315.25C122.919 314.634 127.071 313.852 132.089 312.558C134.592 311.911 137.315 311.119 140.153 310.065C142.99 309.011 145.953 307.749 148.863 306.049C151.784 304.379 154.663 302.283 157.292 299.779C159.9 297.254 162.248 294.271 163.938 290.849C165.659 287.448 166.452 283.755 167.098 280.083C167.745 276.411 168.267 272.75 169.341 269.317C170.405 265.896 172.116 262.756 174.307 260.377C176.456 257.967 178.96 256.215 181.432 255.046C186.419 252.71 191.019 252.772 193.94 253.242C196.903 253.742 198.374 254.577 198.311 254.713C198.249 254.921 196.684 254.441 193.825 254.274C191.009 254.128 186.721 254.379 182.277 256.726C177.854 259.021 173.431 263.59 171.699 270.027C170.76 273.219 170.291 276.776 169.675 280.511C169.07 284.235 168.225 288.262 166.337 292.017C164.49 295.763 161.924 298.976 159.108 301.646C156.27 304.306 153.193 306.466 150.084 308.166C146.986 309.898 143.856 311.139 140.893 312.13C137.931 313.121 135.114 313.82 132.527 314.373C127.363 315.458 123.138 315.949 120.227 316.262C117.296 316.564 115.679 316.627 115.648 316.439Z" fill="#231F20"/>
<path d="M110.088 304.223C110.015 304.369 109.316 304.212 108.168 303.628C107.031 303.054 105.497 301.949 103.943 300.238C102.378 298.537 100.897 296.169 99.7912 293.332C98.6958 290.494 97.9969 287.166 97.9238 283.651C97.8821 280.156 98.3516 276.87 99.0296 273.97C99.6973 271.07 100.542 268.545 101.314 266.459C102.889 262.307 104.141 259.866 104.475 259.98C104.84 260.106 104.204 262.776 103.109 267.022C102.055 271.257 100.501 277.12 100.584 283.599C100.647 286.812 101.21 289.847 102.097 292.487C102.994 295.116 104.173 297.358 105.414 299.048C107.886 302.481 110.317 303.837 110.088 304.223Z" fill="#231F20"/>
<path d="M126.935 296.847C126.591 296.201 128.49 294.521 131.171 293.092C133.852 291.663 136.303 291.037 136.647 291.684C136.992 292.33 135.093 294.01 132.412 295.439C129.731 296.858 127.279 297.494 126.935 296.847Z" fill="#231F20"/>
<path d="M155.498 37.1522C156.666 35.9003 154.789 34.0226 153.62 35.2744C152.681 36.2863 151.743 37.2878 150.804 38.2997C150.668 38.4457 150.574 38.6127 150.511 38.79C150.261 38.9882 150.021 39.1864 149.781 39.4055C148.529 40.5739 150.407 42.4412 151.659 41.2833C151.972 40.9912 152.306 40.7199 152.66 40.48C153.662 40.3026 154.58 39.8228 155.321 39.0821C155.821 38.5814 155.759 37.799 155.373 37.2878C155.415 37.2356 155.456 37.1939 155.498 37.1522Z" fill="#231F20"/>
<path d="M188.171 274.273C187.963 273.313 191.791 271.685 196.726 270.642C201.649 269.589 205.812 269.516 206.01 270.465C206.219 271.425 202.39 273.052 197.456 274.095C192.532 275.149 188.37 275.222 188.171 274.273Z" fill="#231F20"/>
<path d="M181.776 283.432C181.568 282.472 187.201 280.459 194.358 278.915C201.514 277.381 207.481 276.912 207.679 277.861C207.888 278.821 202.255 280.834 195.098 282.378C187.952 283.912 181.985 284.381 181.776 283.432Z" fill="#231F20"/>
<path d="M174.735 294.385C174.422 293.478 180.785 290.453 189.183 288.439C197.571 286.405 204.623 286.186 204.758 287.135C204.904 288.116 198.228 289.879 190.018 291.871C181.808 293.843 175.058 295.324 174.735 294.385Z" fill="#231F20"/>
<path d="M185.597 301.429C191.538 299.804 196.144 297.721 195.886 296.777C195.627 295.832 190.602 296.383 184.661 298.008C178.72 299.633 174.113 301.716 174.372 302.66C174.63 303.605 179.656 303.054 185.597 301.429Z" fill="#231F20"/>
<path d="M163.614 310.513C163.426 309.554 167.797 307.874 173.379 306.758C178.96 305.642 183.644 305.516 183.832 306.476C184.019 307.436 179.648 309.115 174.067 310.232C168.486 311.348 163.802 311.473 163.614 310.513Z" fill="#231F20"/>
<path d="M104.298 48.638C104.277 45.5814 103.254 42.3266 102.242 39.4369C100.448 34.2939 98.0384 28.9736 93.8343 25.3433C89.0877 21.2435 82.9745 19.3344 76.7153 19.5848C69.3399 19.8769 62.6425 22.8083 56.0078 25.7605C55.0897 26.1674 54.4116 26.7829 53.9422 27.5235C53.1702 27.5861 52.4087 27.6383 51.6367 27.7009C51.1881 27.7322 50.7708 27.8156 50.3744 27.9617C50.2075 27.9408 50.0302 27.92 49.8424 27.92C45.4505 27.92 45.4401 34.7425 49.8424 34.7425C50.3327 34.7425 50.7604 34.6591 51.1359 34.5026C51.3029 34.5234 51.4698 34.5234 51.6367 34.513C52.4504 34.4504 53.2641 34.3878 54.0778 34.3252C54.2864 34.6695 54.5159 34.9929 54.7767 35.2745C58.3027 39.1761 60.7856 42.5352 63.5918 47.3235C64.9062 49.556 66.1059 51.851 67.1909 54.1982C67.8272 55.5753 68.0254 56.0447 68.3697 56.9106C68.8809 58.2146 69.3607 59.529 69.8093 60.8643C70.018 61.4694 70.3101 62.0432 70.6752 62.5752C70.1223 65.0267 72.8033 68.0311 75.7347 66.4455C80.2518 64.0148 84.8836 61.8345 89.6302 59.9254C90.2457 59.769 90.8507 59.6125 91.4662 59.456C94.3037 58.7258 97.7046 58.3085 100.187 56.6602C100.594 56.389 100.959 56.1073 101.293 55.8048C102.138 55.544 102.973 55.2936 103.818 55.0537C107.177 54.1357 106.739 49.7855 104.298 48.638Z" fill="#84CBB9"/>
<path d="M73.6276 20.0019C73.5337 19.7932 74.1074 19.2299 75.3906 18.6562C76.6633 18.0824 78.6871 17.519 81.2326 17.5608C83.7675 17.5816 86.8241 18.1971 89.8494 19.7515C92.8852 21.2955 95.7435 23.7678 98.0803 26.814C100.407 29.8706 102.013 33.1462 103.119 36.2028C104.225 39.2594 104.882 42.0761 105.331 44.4442C106.176 49.1803 106.29 52.143 105.831 52.2473C105.341 52.362 104.35 49.5454 102.91 45.07C101.419 40.6364 99.4364 34.4398 95.2845 28.9839C93.2085 26.282 90.7883 24.0912 88.3054 22.6308C85.8122 21.1703 83.2459 20.3983 81.0656 20.0749C76.632 19.4073 73.8258 20.513 73.6276 20.0019Z" fill="#231F20"/>
<path d="M34.2571 45.5186C34.0276 45.4351 34.111 44.5275 34.5179 42.9419C34.9456 41.3771 35.6237 39.0612 37.345 36.474C38.2213 35.1909 39.4001 33.8973 40.9857 32.8228C42.5505 31.7587 44.6474 30.9555 46.9216 31.0181C49.1958 31.0494 51.4595 31.9257 53.3477 33.1984C55.2567 34.4711 56.8946 36.088 58.3655 37.8406C64.0509 44.8301 67.7439 52.0386 69.8512 57.4633C71.948 62.8983 72.5218 66.4661 72.0941 66.6017C71.5933 66.7686 70.185 63.5034 67.577 58.496C64.969 53.5095 61.0257 46.7078 55.6636 40.1148C53.0348 36.933 49.8843 34.4502 46.7964 34.2729C43.7189 34.0225 41.0066 36.0359 39.3375 37.9762C37.6162 40 36.5939 42.0656 35.8011 43.4426C35.0082 44.8509 34.4866 45.6021 34.2571 45.5186Z" fill="#231F20"/>
<path d="M39.3374 34.5443C39.0766 34.1584 40.944 32.3119 44.4387 29.9647C46.1704 28.7754 48.3299 27.5236 50.7814 26.2196C53.2434 24.9469 56.0183 23.6637 58.9914 22.4849C61.975 21.3165 64.8751 20.3672 67.5561 19.6266C70.2476 18.9276 72.6887 18.3747 74.7751 18.093C78.9479 17.4775 81.5768 17.634 81.629 18.093C81.6915 18.6042 79.2295 19.324 75.328 20.5341C73.3667 21.1183 71.0613 21.8903 68.5159 22.7457C65.9705 23.6324 63.1851 24.6444 60.2954 25.7814C48.6741 30.2672 39.9008 35.358 39.3374 34.5443Z" fill="#231F20"/>
<path d="M29.7504 118.021C29.8025 118.407 28.4151 118.96 26.0261 119.586C24.8265 119.899 23.3868 120.223 21.7386 120.556C21.3317 120.64 20.9041 120.723 20.4659 120.807C19.6939 120.932 18.8906 121.068 18.0874 121.203C16.2722 121.485 14.384 121.777 12.4332 122.079C13.5808 120.452 14.77 118.772 15.9801 117.051C16.2931 116.603 16.5852 116.175 16.8773 115.705L17.305 115.027C17.5762 114.579 17.8579 114.12 18.1291 113.661C23.6894 104.366 25.8071 95.6238 26.819 95.8116C27.278 95.895 27.3615 98.2422 26.5791 101.904C25.8175 105.555 24.1067 110.521 21.1753 115.466C20.8728 115.956 20.591 116.436 20.2885 116.905L19.8399 117.583C19.8399 117.573 19.8295 117.583 19.8295 117.583C19.8086 117.594 19.7565 117.625 19.6626 117.698C19.6418 117.74 19.6731 117.761 19.7461 117.792L19.8191 117.813L19.8608 117.823C19.8713 117.823 19.8713 117.823 19.8922 117.823L20.059 117.813C20.4972 117.781 20.9249 117.75 21.3526 117.719C23.0217 117.604 24.5031 117.531 25.7445 117.51C28.2169 117.468 29.6982 117.635 29.7504 118.021Z" fill="#231F20"/>
<path d="M113.864 49.5456C114.072 49.9733 111.391 51.799 106.78 54.1879C102.169 56.5873 95.6286 59.5291 88.2948 62.4396C73.5961 68.2294 61.3698 71.9745 61.0255 71.0982C60.6604 70.1593 72.3547 64.9224 86.9908 59.1535C94.3037 56.2534 100.938 53.6976 105.779 51.9033C110.599 50.109 113.645 49.097 113.864 49.5456Z" fill="#231F20"/>
<path d="M132.464 145.718C132.464 145.687 132.464 145.666 132.464 145.635C132.339 137.947 132.568 130.164 132.078 122.486C131.911 119.889 131.129 117.291 129.481 115.33C129.564 115.059 129.606 114.767 129.595 114.464C129.616 113.995 129.512 113.556 129.303 113.15C129.168 112.722 128.928 112.357 128.594 112.054C127.947 111.46 127.092 111.011 126.184 111.053C125.882 111.094 125.579 111.136 125.276 111.178C124.703 111.345 124.192 111.637 123.774 112.054C123.753 112.075 123.722 112.096 123.701 112.117C121.458 111.731 119.142 112.106 117.014 113.202C113.864 114.829 110.953 117.208 108.011 119.2C104.746 121.422 101.69 123.874 99.9683 127.368C99.4259 127.515 98.9252 127.796 98.4974 128.224C96.6927 130.06 95.8686 132.95 96.797 135.412C97.0578 136.121 97.5273 136.757 98.1115 137.227C97.8194 137.853 97.7359 138.604 97.9654 139.459C99.6554 145.687 101.982 151.706 104.861 157.475C105.727 159.207 107.959 159.468 109.524 158.696C110.244 158.341 110.974 157.986 111.694 157.632C115.21 157.966 118.892 156.714 120.937 153.928C121.813 154.231 122.752 154.387 123.733 154.346C124.682 154.304 125.61 154.116 126.476 153.814C127.113 154.335 127.905 154.659 128.667 154.617C130.67 154.523 131.88 153.115 132.078 151.206C132.235 149.693 132.391 148.17 132.537 146.657C132.579 146.334 132.548 146.021 132.464 145.718Z" fill="#F2F2F2"/>
<path d="M180.347 115.841C180.347 115.82 180.358 115.81 180.358 115.789C180.504 115.34 180.524 114.881 180.42 114.433C180.399 113.974 180.264 113.557 180.013 113.16C179.794 112.764 179.502 112.44 179.137 112.2C178.803 111.898 178.417 111.7 177.979 111.585C177.791 111.564 177.593 111.533 177.405 111.512C175.841 110.01 173.827 108.862 171.438 108.278C168.434 107.537 165.179 107.423 162.101 107.099C160.088 106.891 158.002 107.12 156.114 107.819C155.999 107.652 155.863 107.485 155.717 107.329C155.634 107.245 155.55 107.162 155.467 107.078C155.154 106.744 154.789 106.515 154.371 106.369C153.965 106.16 153.526 106.056 153.057 106.077C152.587 106.056 152.149 106.16 151.742 106.369C151.315 106.505 150.95 106.744 150.647 107.078C150.47 107.308 150.292 107.537 150.115 107.767C149.802 108.299 149.656 108.873 149.646 109.488C149.687 109.791 149.729 110.093 149.771 110.396C149.938 110.969 150.23 111.481 150.647 111.898C150.731 111.981 150.814 112.065 150.897 112.148C150.908 112.159 150.908 112.159 150.918 112.169C150.866 112.253 150.814 112.336 150.772 112.43C148.853 116.175 149.416 119.941 150.313 123.863C150.991 126.805 151.659 129.758 152.337 132.699C152.306 133.972 152.556 135.245 153.151 136.424C152.974 137.008 152.942 137.655 153.078 138.322C153.297 139.397 153.641 140.461 154.225 141.379C154.163 142.026 154.277 142.693 154.559 143.267C154.559 143.288 154.57 143.309 154.57 143.33C154.559 143.632 154.59 143.935 154.684 144.237C154.789 144.686 154.997 145.072 155.3 145.395C155.54 145.771 155.863 146.063 156.26 146.271C157.052 146.689 158.012 146.897 158.888 146.616C159.754 146.334 160.432 145.823 160.923 145.051C161.152 144.686 161.382 144.331 161.622 143.966C161.872 143.57 162.008 143.152 162.029 142.693C162.039 142.652 162.039 142.62 162.049 142.579C162.154 142.453 162.248 142.328 162.331 142.182C162.488 141.921 162.602 141.619 162.686 141.295C163.635 141.128 164.574 140.774 165.461 140.221C169.581 137.665 173.931 134.859 177.134 131.114C177.353 131.155 177.583 131.176 177.823 131.166C179.669 131.082 181.234 129.664 181.234 127.755V124.552C181.234 124.218 181.182 123.884 181.077 123.561C181.609 120.922 181.338 118.23 180.347 115.841Z" fill="#F2F2F2"/>
<path d="M114.49 145.437C120.009 145.437 124.484 138.403 124.484 129.726C124.484 121.05 120.009 114.016 114.49 114.016C108.97 114.016 104.496 121.05 104.496 129.726C104.496 138.403 108.97 145.437 114.49 145.437Z" fill="#231F20"/>
<path d="M162.592 133.69C167.46 133.69 171.407 127.483 171.407 119.826C171.407 112.169 167.46 105.962 162.592 105.962C157.723 105.962 153.777 112.169 153.777 119.826C153.777 127.483 157.723 133.69 162.592 133.69Z" fill="#231F20"/>
<path d="M126.57 128.725L115.23 129.726L125.788 121.673L126.57 128.725Z" fill="#F2F2F2"/>
<path d="M173.931 120.087L162.592 121.088L173.139 113.035L173.931 120.087Z" fill="#F2F2F2"/>
<path d="M148.102 164.047C147.945 163.734 149.135 162.67 151.68 161.418C154.205 160.135 158.106 158.852 162.801 157.506C165.137 156.818 167.662 156.067 170.228 155.065C172.795 154.064 175.392 152.791 177.687 151.007C179.982 149.244 182.006 146.887 183.467 144.101C184.885 141.389 186.012 137.852 185.355 135.589C185.021 134.504 184.51 134.013 183.467 133.69C182.402 133.388 181.171 133.534 179.847 134.055C178.522 134.556 177.103 135.422 175.695 136.277C174.297 137.133 172.941 138.03 171.626 138.927C166.389 142.536 161.684 146.146 157.386 148.743C153.12 151.383 149.322 153.031 146.6 153.813C143.877 154.617 142.281 154.627 142.187 154.304C141.989 153.563 147.643 151.539 155.269 145.645C159.129 142.766 163.479 138.937 168.768 134.952C170.093 133.961 171.491 132.97 172.961 132.011C174.432 131.072 175.945 130.049 177.917 129.236C179.836 128.432 182.34 127.932 184.833 128.61C186.075 128.933 187.358 129.58 188.39 130.602C189.413 131.604 190.112 132.897 190.456 134.16C191.145 136.705 190.821 138.979 190.299 141.034C189.757 143.016 188.995 144.873 188.046 146.595C186.147 150.037 183.54 152.885 180.598 154.961C177.666 157.037 174.568 158.32 171.699 159.238C168.82 160.146 166.118 160.719 163.687 161.179C158.826 162.065 155.008 162.743 152.379 163.39C149.75 163.974 148.269 164.392 148.102 164.047Z" fill="#231F20"/>
<path d="M175.298 169.514C175.632 169.639 175.716 170.463 175.413 171.861C175.121 173.259 174.349 175.199 172.93 177.359C171.522 179.518 169.404 181.834 166.546 183.795C163.708 185.767 160.099 187.321 156.062 187.916C152.045 188.469 148.258 188.02 145.014 187.238C141.759 186.445 139.016 185.308 136.815 184.244C132.433 182.074 130.044 180.238 130.315 179.581C130.597 178.882 133.581 179.518 138.119 180.718C140.393 181.302 143.053 181.991 145.984 182.439C148.905 182.888 152.118 183.107 155.331 182.658C158.513 182.189 161.455 181.083 163.938 179.664C166.421 178.256 168.455 176.587 170.009 175.012C173.16 171.861 174.547 169.232 175.298 169.514Z" fill="#231F20"/>
<path d="M135.166 173.176C135.615 173.27 135.886 174.49 135.302 176.347C134.738 178.173 133.163 180.582 130.503 182.106C127.832 183.629 124.964 183.775 123.107 183.336C121.208 182.898 120.29 182.053 120.436 181.615C120.593 181.135 121.688 181.073 123.242 180.843C124.786 180.614 126.831 180.144 128.75 179.049C130.67 177.943 132.11 176.43 133.09 175.21C134.071 173.979 134.676 173.061 135.166 173.176Z" fill="#231F20"/>
<path d="M180.973 167.313C181.276 167.678 181.046 168.502 180.107 169.337C179.189 170.171 177.531 170.943 175.559 170.901C173.598 170.87 171.95 170.046 171.063 169.19C170.155 168.325 169.947 167.49 170.26 167.135C170.583 166.76 171.324 166.854 172.263 166.989C173.201 167.146 174.359 167.344 175.611 167.365C176.863 167.386 178.031 167.219 178.97 167.104C179.92 166.989 180.66 166.927 180.973 167.313Z" fill="#231F20"/>
<path d="M166.702 191.578C166.963 191.974 166.421 192.882 165.158 193.852C163.906 194.822 161.893 195.813 159.514 196.293C157.126 196.762 154.893 196.616 153.36 196.199C151.816 195.782 150.981 195.156 151.065 194.686C151.273 193.706 154.778 193.664 158.816 192.83C162.884 192.058 166.128 190.743 166.702 191.578Z" fill="#231F20"/>
<path d="M135.323 155.848C135.114 156.328 133.111 155.785 129.908 155.618C126.716 155.42 122.293 155.765 117.494 156.954C107.855 159.228 101.053 164.006 100.438 163.192C100.146 162.827 101.502 161.127 104.308 159.072C107.114 157.037 111.454 154.763 116.649 153.511C121.813 152.218 126.831 152.249 130.284 153.136C133.758 154.012 135.521 155.452 135.323 155.848Z" fill="#231F20"/>
<path d="M131.16 154.68C130.837 154.586 131.14 152.677 131.578 149.255C131.964 145.833 132.496 140.889 132.204 134.796C131.932 128.725 130.868 121.506 128.229 113.963C126.915 110.229 125.204 106.442 122.439 103.584C121.073 102.154 119.466 101.028 117.62 100.318C115.794 99.609 113.791 99.3378 111.965 99.7029C108.335 100.35 105.539 103.99 103.474 107.579C101.419 111.22 100.146 115.163 99.4366 119.023C98.0283 126.774 98.5915 134.108 99.6347 140.054C100.709 146.032 102.378 150.726 103.609 153.929C104.861 157.131 105.633 158.905 105.352 159.072C105.112 159.218 103.818 157.736 102.055 154.669C100.313 151.602 98.1117 146.908 96.5782 140.711C95.8271 137.613 95.2011 134.16 94.9508 130.394C94.6795 126.638 94.7526 122.57 95.4202 118.324C96.0879 114.089 97.3919 109.665 99.6869 105.461C100.855 103.375 102.17 101.351 103.975 99.4525C104.872 98.5136 105.915 97.6373 107.115 96.9071C108.304 96.1769 109.691 95.6344 111.1 95.3527C113.948 94.7894 116.775 95.238 119.226 96.2082C121.688 97.1679 123.889 98.764 125.579 100.59C129.001 104.272 130.774 108.654 132.089 112.659C134.676 120.744 135.448 128.401 135.333 134.744C135.229 141.108 134.196 146.178 133.268 149.568C132.287 153 131.421 154.763 131.16 154.68Z" fill="#231F20"/>
<path d="M155.842 146.574C155.582 146.678 154.653 145.281 153.453 142.526C152.264 139.772 150.772 135.662 149.604 130.394C148.446 125.126 147.601 118.7 147.705 111.533C147.768 107.934 148.029 104.22 148.655 100.287C148.999 98.3051 149.489 96.2499 150.355 94.2157C151.2 92.1919 152.515 90.1681 154.288 88.5824C156.041 86.9863 158.283 85.7762 160.766 85.4528C163.27 85.0981 165.722 85.7658 167.683 86.8298C169.675 87.9043 171.282 89.417 172.554 90.9609C173.838 92.5257 174.85 94.1322 175.726 95.7179C179.346 102.05 181.213 108.414 182.027 113.786C182.851 119.18 182.653 123.613 182.277 126.597C181.849 129.591 181.286 131.176 181.015 131.145C180.691 131.103 180.671 129.445 180.556 126.524C180.41 123.603 180.118 119.388 178.96 114.37C177.812 109.363 175.757 103.532 172.221 97.7835C170.478 94.9042 168.423 92.0771 165.648 90.6479C164.271 89.9281 162.759 89.5839 161.35 89.8029C159.921 90.0011 158.471 90.7418 157.24 91.858C154.747 94.0696 153.558 97.5227 152.901 101.038C152.275 104.616 151.93 108.257 151.763 111.648C151.45 118.491 151.93 124.677 152.671 129.831C154.215 140.148 156.51 146.324 155.842 146.574Z" fill="#231F20"/>
<path d="M151.388 106.337C151.388 105.858 153.036 105.409 155.738 105.263C158.43 105.117 162.175 105.346 166.212 106.181C170.249 107.026 173.775 108.309 176.185 109.509C178.605 110.708 179.94 111.783 179.753 112.221C179.346 113.15 173.18 111.209 165.492 109.644C157.824 108.027 151.398 107.349 151.388 106.337Z" fill="#231F20"/>
<path d="M127.144 110.876C127.311 111.908 119.184 113.577 110.922 119.075C102.576 124.448 97.7882 131.218 96.9119 130.655C96.5259 130.415 97.2249 128.349 99.1965 125.48C100.177 124.041 101.512 122.455 103.14 120.817C104.788 119.211 106.749 117.583 108.982 116.112C111.225 114.662 113.499 113.515 115.627 112.649C117.776 111.804 119.768 111.22 121.479 110.896C124.911 110.239 127.081 110.427 127.144 110.876Z" fill="#231F20"/>
<path d="M109.357 83.7522C109.503 84.4929 108.199 85.39 106.238 86.5897C104.267 87.7894 101.648 89.3646 98.9567 91.3989C96.2756 93.4435 94.0432 95.53 92.3636 97.1052C90.6736 98.67 89.4635 99.6819 88.7854 99.3377C88.1595 99.0143 88.2116 97.3243 89.2966 94.9353C89.8286 93.7461 90.6528 92.4212 91.7273 91.0651C92.8122 89.7298 94.1683 88.3736 95.754 87.1635C97.3501 85.9638 99.0193 85.0249 100.594 84.3364C102.191 83.6687 103.682 83.241 104.976 83.0428C107.574 82.6568 109.222 83.0533 109.357 83.7522Z" fill="#231F20"/>
<path d="M179.283 78.4945C178.72 78.9953 177.479 78.5571 175.809 77.8895C174.13 77.2114 171.96 76.356 169.467 75.7301C166.973 75.125 164.647 74.8642 162.853 74.6764C161.069 74.4782 159.765 74.3009 159.504 73.5915C159.254 72.9343 160.203 71.8076 162.258 70.9731C163.281 70.5558 164.574 70.2637 166.024 70.1489C167.474 70.0655 169.102 70.1802 170.739 70.5766C172.377 70.9939 173.869 71.6511 175.11 72.4022C176.352 73.1846 177.353 74.0401 178.063 74.8955C179.502 76.5959 179.805 78.0251 179.283 78.4945Z" fill="#231F20"/>
<path d="M35.5298 54.9079C36.0931 55.3877 36.2391 56.2014 36.3748 57.0151C36.4895 57.8392 36.5729 58.6738 36.6251 59.4979C36.6877 60.3221 36.7294 61.1566 36.7294 61.9912C36.719 62.8153 36.6772 63.6395 36.1974 64.1924C35.7384 64.7348 34.7577 64.8496 33.6624 64.1506C32.5879 63.483 31.4717 61.9077 31.3256 59.8839C31.1796 57.8497 32.0454 56.1388 33.0156 55.3251C34.0171 54.4697 34.9873 54.4384 35.5298 54.9079Z" fill="#231F20"/>
</svg>
